<mxfile host="Electron" modified="2024-03-13T03:50:57.620Z" agent="Mozilla/5.0 (Macintosh; Intel Mac OS X 10_15_7) AppleWebKit/537.36 (KHTML, like Gecko) draw.io/24.0.4 Chrome/120.0.6099.109 Electron/28.1.0 Safari/537.36" etag="-0EwnyCaxo2PkBmzEhT9" version="24.0.4" type="device">
  <diagram name="Page-1" id="7HknB6531hBOHP6SLGoX">
    <mxGraphModel dx="1193" dy="909" grid="1" gridSize="10" guides="1" tooltips="1" connect="1" arrows="1" fold="1" page="1" pageScale="1" pageWidth="850" pageHeight="1100" math="0" shadow="0">
      <root>
        <mxCell id="0" />
        <mxCell id="1" parent="0" />
        <mxCell id="XDJdw9ZEP_axK00QsI53-1" value="" style="strokeWidth=5;html=1;shape=mxgraph.flowchart.annotation_1;align=center;pointerEvents=1;rotation=-90;fillColor=#1ba1e2;fontColor=#ffffff;strokeColor=#006EAF;fontStyle=0;labelBorderColor=none;" parent="1" vertex="1">
          <mxGeometry y="516.25" width="205" height="42.5" as="geometry" />
        </mxCell>
        <mxCell id="XDJdw9ZEP_axK00QsI53-2" value="&lt;font style=&quot;font-size: 20px;&quot;&gt;1&lt;/font&gt;" style="text;html=1;align=center;verticalAlign=middle;resizable=0;points=[];autosize=1;strokeColor=none;fillColor=none;" parent="1" vertex="1">
          <mxGeometry x="87.5" y="600" width="30" height="40" as="geometry" />
        </mxCell>
        <mxCell id="XDJdw9ZEP_axK00QsI53-3" value="&lt;font style=&quot;font-size: 18px;&quot;&gt;a&lt;/font&gt;" style="text;html=1;align=center;verticalAlign=middle;resizable=0;points=[];autosize=1;strokeColor=none;fillColor=none;" parent="1" vertex="1">
          <mxGeometry x="87.5" y="320" width="30" height="40" as="geometry" />
        </mxCell>
        <mxCell id="XDJdw9ZEP_axK00QsI53-4" value="" style="endArrow=classic;html=1;rounded=0;fontSize=12;fontStyle=1;horizontal=0;strokeWidth=3;" parent="1" edge="1">
          <mxGeometry width="50" height="50" relative="1" as="geometry">
            <mxPoint x="100" y="360" as="sourcePoint" />
            <mxPoint x="100" y="420" as="targetPoint" />
          </mxGeometry>
        </mxCell>
        <mxCell id="yvvdC9rSGpjuioBhzgut-3" value="" style="strokeWidth=5;html=1;shape=mxgraph.flowchart.annotation_1;align=center;pointerEvents=1;rotation=-90;fillColor=#1ba1e2;fontColor=#ffffff;strokeColor=#006EAF;fontStyle=0;labelBorderColor=none;" vertex="1" parent="1">
          <mxGeometry x="60" y="516.25" width="205" height="42.5" as="geometry" />
        </mxCell>
        <mxCell id="yvvdC9rSGpjuioBhzgut-4" value="&lt;font style=&quot;font-size: 20px;&quot;&gt;-3&lt;/font&gt;" style="text;html=1;align=center;verticalAlign=middle;resizable=0;points=[];autosize=1;strokeColor=none;fillColor=none;" vertex="1" parent="1">
          <mxGeometry x="140" y="580" width="40" height="40" as="geometry" />
        </mxCell>
        <mxCell id="yvvdC9rSGpjuioBhzgut-5" value="&lt;font style=&quot;font-size: 18px;&quot;&gt;b&lt;/font&gt;" style="text;html=1;align=center;verticalAlign=middle;resizable=0;points=[];autosize=1;strokeColor=none;fillColor=none;" vertex="1" parent="1">
          <mxGeometry x="147.5" y="320" width="30" height="40" as="geometry" />
        </mxCell>
        <mxCell id="yvvdC9rSGpjuioBhzgut-6" value="" style="endArrow=classic;html=1;rounded=0;fontSize=12;fontStyle=1;horizontal=0;strokeWidth=3;" edge="1" parent="1">
          <mxGeometry width="50" height="50" relative="1" as="geometry">
            <mxPoint x="160" y="360" as="sourcePoint" />
            <mxPoint x="160" y="420" as="targetPoint" />
          </mxGeometry>
        </mxCell>
        <mxCell id="yvvdC9rSGpjuioBhzgut-7" value="&lt;span style=&quot;font-size: 20px;&quot;&gt;1&lt;/span&gt;" style="text;html=1;align=center;verticalAlign=middle;resizable=0;points=[];autosize=1;strokeColor=none;fillColor=none;" vertex="1" parent="1">
          <mxGeometry x="147.5" y="600" width="30" height="40" as="geometry" />
        </mxCell>
        <mxCell id="yvvdC9rSGpjuioBhzgut-12" value="" style="strokeWidth=5;html=1;shape=mxgraph.flowchart.annotation_1;align=center;pointerEvents=1;rotation=-90;fillColor=#1ba1e2;fontColor=#ffffff;strokeColor=#006EAF;fontStyle=0;labelBorderColor=none;" vertex="1" parent="1">
          <mxGeometry x="120" y="516.25" width="205" height="42.5" as="geometry" />
        </mxCell>
        <mxCell id="yvvdC9rSGpjuioBhzgut-13" value="&lt;font style=&quot;font-size: 20px;&quot;&gt;-3&lt;/font&gt;" style="text;html=1;align=center;verticalAlign=middle;resizable=0;points=[];autosize=1;strokeColor=none;fillColor=none;" vertex="1" parent="1">
          <mxGeometry x="200" y="580" width="40" height="40" as="geometry" />
        </mxCell>
        <mxCell id="yvvdC9rSGpjuioBhzgut-16" value="&lt;span style=&quot;font-size: 20px;&quot;&gt;1&lt;/span&gt;" style="text;html=1;align=center;verticalAlign=middle;resizable=0;points=[];autosize=1;strokeColor=none;fillColor=none;" vertex="1" parent="1">
          <mxGeometry x="207.5" y="600" width="30" height="40" as="geometry" />
        </mxCell>
        <mxCell id="yvvdC9rSGpjuioBhzgut-51" value="&lt;font style=&quot;font-size: 18px;&quot;&gt;c&lt;/font&gt;" style="text;html=1;align=center;verticalAlign=middle;resizable=0;points=[];autosize=1;strokeColor=none;fillColor=none;" vertex="1" parent="1">
          <mxGeometry x="207.5" y="320" width="30" height="40" as="geometry" />
        </mxCell>
        <mxCell id="yvvdC9rSGpjuioBhzgut-53" value="&lt;font style=&quot;font-size: 20px;&quot;&gt;2&lt;/font&gt;" style="text;html=1;align=center;verticalAlign=middle;resizable=0;points=[];autosize=1;strokeColor=none;fillColor=none;" vertex="1" parent="1">
          <mxGeometry x="207.5" y="558.75" width="30" height="40" as="geometry" />
        </mxCell>
        <mxCell id="yvvdC9rSGpjuioBhzgut-54" value="" style="endArrow=classic;html=1;rounded=0;fontSize=12;fontStyle=1;horizontal=0;strokeWidth=3;" edge="1" parent="1">
          <mxGeometry width="50" height="50" relative="1" as="geometry">
            <mxPoint x="220" y="360" as="sourcePoint" />
            <mxPoint x="220" y="420" as="targetPoint" />
          </mxGeometry>
        </mxCell>
        <mxCell id="yvvdC9rSGpjuioBhzgut-55" value="" style="strokeWidth=5;html=1;shape=mxgraph.flowchart.annotation_1;align=center;pointerEvents=1;rotation=-90;fillColor=#1ba1e2;fontColor=#ffffff;strokeColor=#006EAF;fontStyle=0;labelBorderColor=none;" vertex="1" parent="1">
          <mxGeometry x="180" y="516.25" width="205" height="42.5" as="geometry" />
        </mxCell>
        <mxCell id="yvvdC9rSGpjuioBhzgut-56" value="&lt;font style=&quot;font-size: 20px;&quot;&gt;-3&lt;/font&gt;" style="text;html=1;align=center;verticalAlign=middle;resizable=0;points=[];autosize=1;strokeColor=none;fillColor=none;" vertex="1" parent="1">
          <mxGeometry x="260" y="580" width="40" height="40" as="geometry" />
        </mxCell>
        <mxCell id="yvvdC9rSGpjuioBhzgut-57" value="&lt;span style=&quot;font-size: 20px;&quot;&gt;1&lt;/span&gt;" style="text;html=1;align=center;verticalAlign=middle;resizable=0;points=[];autosize=1;strokeColor=none;fillColor=none;" vertex="1" parent="1">
          <mxGeometry x="267.5" y="600" width="30" height="40" as="geometry" />
        </mxCell>
        <mxCell id="yvvdC9rSGpjuioBhzgut-58" value="&lt;font style=&quot;font-size: 18px;&quot;&gt;d&lt;/font&gt;" style="text;html=1;align=center;verticalAlign=middle;resizable=0;points=[];autosize=1;strokeColor=none;fillColor=none;" vertex="1" parent="1">
          <mxGeometry x="267.5" y="320" width="30" height="40" as="geometry" />
        </mxCell>
        <mxCell id="yvvdC9rSGpjuioBhzgut-59" value="&lt;font style=&quot;font-size: 20px;&quot;&gt;2&lt;/font&gt;" style="text;html=1;align=center;verticalAlign=middle;resizable=0;points=[];autosize=1;strokeColor=none;fillColor=none;" vertex="1" parent="1">
          <mxGeometry x="267.5" y="558.75" width="30" height="40" as="geometry" />
        </mxCell>
        <mxCell id="yvvdC9rSGpjuioBhzgut-60" value="" style="endArrow=classic;html=1;rounded=0;fontSize=12;fontStyle=1;horizontal=0;strokeWidth=3;" edge="1" parent="1">
          <mxGeometry width="50" height="50" relative="1" as="geometry">
            <mxPoint x="280" y="360" as="sourcePoint" />
            <mxPoint x="280" y="420" as="targetPoint" />
          </mxGeometry>
        </mxCell>
        <mxCell id="yvvdC9rSGpjuioBhzgut-61" value="&lt;font style=&quot;font-size: 20px;&quot;&gt;-2&lt;/font&gt;" style="text;html=1;align=center;verticalAlign=middle;resizable=0;points=[];autosize=1;strokeColor=none;fillColor=none;" vertex="1" parent="1">
          <mxGeometry x="262.5" y="540" width="40" height="40" as="geometry" />
        </mxCell>
        <mxCell id="yvvdC9rSGpjuioBhzgut-62" value="" style="strokeWidth=5;html=1;shape=mxgraph.flowchart.annotation_1;align=center;pointerEvents=1;rotation=-90;fillColor=#1ba1e2;fontColor=#ffffff;strokeColor=#006EAF;fontStyle=0;labelBorderColor=none;" vertex="1" parent="1">
          <mxGeometry x="240" y="516.25" width="205" height="42.5" as="geometry" />
        </mxCell>
        <mxCell id="yvvdC9rSGpjuioBhzgut-63" value="&lt;font style=&quot;font-size: 20px;&quot;&gt;-3&lt;/font&gt;" style="text;html=1;align=center;verticalAlign=middle;resizable=0;points=[];autosize=1;strokeColor=none;fillColor=none;" vertex="1" parent="1">
          <mxGeometry x="320" y="580" width="40" height="40" as="geometry" />
        </mxCell>
        <mxCell id="yvvdC9rSGpjuioBhzgut-64" value="&lt;span style=&quot;font-size: 20px;&quot;&gt;1&lt;/span&gt;" style="text;html=1;align=center;verticalAlign=middle;resizable=0;points=[];autosize=1;strokeColor=none;fillColor=none;" vertex="1" parent="1">
          <mxGeometry x="327.5" y="600" width="30" height="40" as="geometry" />
        </mxCell>
        <mxCell id="yvvdC9rSGpjuioBhzgut-65" value="&lt;font style=&quot;font-size: 18px;&quot;&gt;e&lt;/font&gt;" style="text;html=1;align=center;verticalAlign=middle;resizable=0;points=[];autosize=1;strokeColor=none;fillColor=none;" vertex="1" parent="1">
          <mxGeometry x="327.5" y="320" width="30" height="40" as="geometry" />
        </mxCell>
        <mxCell id="yvvdC9rSGpjuioBhzgut-66" value="&lt;font style=&quot;font-size: 20px;&quot;&gt;2&lt;/font&gt;" style="text;html=1;align=center;verticalAlign=middle;resizable=0;points=[];autosize=1;strokeColor=none;fillColor=none;" vertex="1" parent="1">
          <mxGeometry x="327.5" y="558.75" width="30" height="40" as="geometry" />
        </mxCell>
        <mxCell id="yvvdC9rSGpjuioBhzgut-67" value="" style="endArrow=classic;html=1;rounded=0;fontSize=12;fontStyle=1;horizontal=0;strokeWidth=3;" edge="1" parent="1">
          <mxGeometry width="50" height="50" relative="1" as="geometry">
            <mxPoint x="340" y="360" as="sourcePoint" />
            <mxPoint x="340" y="420" as="targetPoint" />
          </mxGeometry>
        </mxCell>
        <mxCell id="yvvdC9rSGpjuioBhzgut-68" value="&lt;font style=&quot;font-size: 20px;&quot;&gt;-2&lt;/font&gt;" style="text;html=1;align=center;verticalAlign=middle;resizable=0;points=[];autosize=1;strokeColor=none;fillColor=none;" vertex="1" parent="1">
          <mxGeometry x="322.5" y="540" width="40" height="40" as="geometry" />
        </mxCell>
        <mxCell id="yvvdC9rSGpjuioBhzgut-69" value="&lt;font style=&quot;font-size: 20px;&quot;&gt;-1&lt;/font&gt;" style="text;html=1;align=center;verticalAlign=middle;resizable=0;points=[];autosize=1;strokeColor=none;fillColor=none;" vertex="1" parent="1">
          <mxGeometry x="322.5" y="518.75" width="40" height="40" as="geometry" />
        </mxCell>
        <mxCell id="yvvdC9rSGpjuioBhzgut-70" value="" style="strokeWidth=5;html=1;shape=mxgraph.flowchart.annotation_1;align=center;pointerEvents=1;rotation=-90;fillColor=#1ba1e2;fontColor=#ffffff;strokeColor=#006EAF;fontStyle=0;labelBorderColor=none;" vertex="1" parent="1">
          <mxGeometry x="300" y="516.25" width="205" height="42.5" as="geometry" />
        </mxCell>
        <mxCell id="yvvdC9rSGpjuioBhzgut-71" value="&lt;font style=&quot;font-size: 20px;&quot;&gt;-3&lt;/font&gt;" style="text;html=1;align=center;verticalAlign=middle;resizable=0;points=[];autosize=1;strokeColor=none;fillColor=none;" vertex="1" parent="1">
          <mxGeometry x="380" y="580" width="40" height="40" as="geometry" />
        </mxCell>
        <mxCell id="yvvdC9rSGpjuioBhzgut-72" value="&lt;span style=&quot;font-size: 20px;&quot;&gt;1&lt;/span&gt;" style="text;html=1;align=center;verticalAlign=middle;resizable=0;points=[];autosize=1;strokeColor=none;fillColor=none;" vertex="1" parent="1">
          <mxGeometry x="387.5" y="600" width="30" height="40" as="geometry" />
        </mxCell>
        <mxCell id="yvvdC9rSGpjuioBhzgut-73" value="&lt;span style=&quot;font-size: 18px;&quot;&gt;-&lt;/span&gt;" style="text;html=1;align=center;verticalAlign=middle;resizable=0;points=[];autosize=1;strokeColor=none;fillColor=none;" vertex="1" parent="1">
          <mxGeometry x="387.5" y="320" width="30" height="40" as="geometry" />
        </mxCell>
        <mxCell id="yvvdC9rSGpjuioBhzgut-74" value="&lt;font style=&quot;font-size: 20px;&quot;&gt;2&lt;/font&gt;" style="text;html=1;align=center;verticalAlign=middle;resizable=0;points=[];autosize=1;strokeColor=none;fillColor=none;" vertex="1" parent="1">
          <mxGeometry x="387.5" y="558.75" width="30" height="40" as="geometry" />
        </mxCell>
        <mxCell id="yvvdC9rSGpjuioBhzgut-76" value="&lt;font style=&quot;font-size: 20px;&quot;&gt;-2&lt;/font&gt;" style="text;html=1;align=center;verticalAlign=middle;resizable=0;points=[];autosize=1;strokeColor=none;fillColor=none;" vertex="1" parent="1">
          <mxGeometry x="382.5" y="540" width="40" height="40" as="geometry" />
        </mxCell>
        <mxCell id="yvvdC9rSGpjuioBhzgut-77" value="&lt;font style=&quot;font-size: 20px;&quot;&gt;-1&lt;/font&gt;" style="text;html=1;align=center;verticalAlign=middle;resizable=0;points=[];autosize=1;strokeColor=none;fillColor=none;" vertex="1" parent="1">
          <mxGeometry x="382.5" y="518.75" width="40" height="40" as="geometry" />
        </mxCell>
        <mxCell id="yvvdC9rSGpjuioBhzgut-79" value="" style="strokeWidth=5;html=1;shape=mxgraph.flowchart.annotation_1;align=center;pointerEvents=1;rotation=-90;fillColor=#1ba1e2;fontColor=#ffffff;strokeColor=#006EAF;fontStyle=0;labelBorderColor=none;" vertex="1" parent="1">
          <mxGeometry x="360" y="516.25" width="205" height="42.5" as="geometry" />
        </mxCell>
        <mxCell id="yvvdC9rSGpjuioBhzgut-80" value="&lt;font style=&quot;font-size: 20px;&quot;&gt;-3&lt;/font&gt;" style="text;html=1;align=center;verticalAlign=middle;resizable=0;points=[];autosize=1;strokeColor=none;fillColor=none;" vertex="1" parent="1">
          <mxGeometry x="440" y="580" width="40" height="40" as="geometry" />
        </mxCell>
        <mxCell id="yvvdC9rSGpjuioBhzgut-81" value="&lt;span style=&quot;font-size: 20px;&quot;&gt;1&lt;/span&gt;" style="text;html=1;align=center;verticalAlign=middle;resizable=0;points=[];autosize=1;strokeColor=none;fillColor=none;" vertex="1" parent="1">
          <mxGeometry x="447.5" y="600" width="30" height="40" as="geometry" />
        </mxCell>
        <mxCell id="yvvdC9rSGpjuioBhzgut-82" value="&lt;span style=&quot;font-size: 18px;&quot;&gt;-&lt;/span&gt;" style="text;html=1;align=center;verticalAlign=middle;resizable=0;points=[];autosize=1;strokeColor=none;fillColor=none;" vertex="1" parent="1">
          <mxGeometry x="447.5" y="320" width="30" height="40" as="geometry" />
        </mxCell>
        <mxCell id="yvvdC9rSGpjuioBhzgut-83" value="&lt;font style=&quot;font-size: 20px;&quot;&gt;2&lt;/font&gt;" style="text;html=1;align=center;verticalAlign=middle;resizable=0;points=[];autosize=1;strokeColor=none;fillColor=none;" vertex="1" parent="1">
          <mxGeometry x="447.5" y="558.75" width="30" height="40" as="geometry" />
        </mxCell>
        <mxCell id="yvvdC9rSGpjuioBhzgut-84" value="&lt;font style=&quot;font-size: 20px;&quot;&gt;-2&lt;/font&gt;" style="text;html=1;align=center;verticalAlign=middle;resizable=0;points=[];autosize=1;strokeColor=none;fillColor=none;" vertex="1" parent="1">
          <mxGeometry x="442.5" y="540" width="40" height="40" as="geometry" />
        </mxCell>
        <mxCell id="yvvdC9rSGpjuioBhzgut-85" value="&lt;font style=&quot;font-size: 20px;&quot;&gt;-1&lt;/font&gt;" style="text;html=1;align=center;verticalAlign=middle;resizable=0;points=[];autosize=1;strokeColor=none;fillColor=none;" vertex="1" parent="1">
          <mxGeometry x="442.5" y="518.75" width="40" height="40" as="geometry" />
        </mxCell>
        <mxCell id="yvvdC9rSGpjuioBhzgut-86" value="" style="endArrow=classic;html=1;rounded=0;fontSize=12;fontStyle=1;horizontal=0;strokeWidth=3;entryX=0.383;entryY=1.05;entryDx=0;entryDy=0;entryPerimeter=0;" edge="1" parent="1" target="yvvdC9rSGpjuioBhzgut-82">
          <mxGeometry width="50" height="50" relative="1" as="geometry">
            <mxPoint x="459.5" y="420" as="sourcePoint" />
            <mxPoint x="460" y="370" as="targetPoint" />
          </mxGeometry>
        </mxCell>
        <mxCell id="yvvdC9rSGpjuioBhzgut-87" value="" style="strokeWidth=5;html=1;shape=mxgraph.flowchart.annotation_1;align=center;pointerEvents=1;rotation=-90;fillColor=#1ba1e2;fontColor=#ffffff;strokeColor=#006EAF;fontStyle=0;labelBorderColor=none;" vertex="1" parent="1">
          <mxGeometry x="417.5" y="516.25" width="205" height="42.5" as="geometry" />
        </mxCell>
        <mxCell id="yvvdC9rSGpjuioBhzgut-88" value="&lt;font style=&quot;font-size: 20px;&quot;&gt;-3&lt;/font&gt;" style="text;html=1;align=center;verticalAlign=middle;resizable=0;points=[];autosize=1;strokeColor=none;fillColor=none;" vertex="1" parent="1">
          <mxGeometry x="497.5" y="580" width="40" height="40" as="geometry" />
        </mxCell>
        <mxCell id="yvvdC9rSGpjuioBhzgut-89" value="&lt;span style=&quot;font-size: 20px;&quot;&gt;1&lt;/span&gt;" style="text;html=1;align=center;verticalAlign=middle;resizable=0;points=[];autosize=1;strokeColor=none;fillColor=none;" vertex="1" parent="1">
          <mxGeometry x="505" y="600" width="30" height="40" as="geometry" />
        </mxCell>
        <mxCell id="yvvdC9rSGpjuioBhzgut-90" value="&lt;span style=&quot;font-size: 18px;&quot;&gt;-&lt;/span&gt;" style="text;html=1;align=center;verticalAlign=middle;resizable=0;points=[];autosize=1;strokeColor=none;fillColor=none;" vertex="1" parent="1">
          <mxGeometry x="482.5" y="320" width="30" height="40" as="geometry" />
        </mxCell>
        <mxCell id="yvvdC9rSGpjuioBhzgut-91" value="&lt;font style=&quot;font-size: 20px;&quot;&gt;2&lt;/font&gt;" style="text;html=1;align=center;verticalAlign=middle;resizable=0;points=[];autosize=1;strokeColor=none;fillColor=none;" vertex="1" parent="1">
          <mxGeometry x="505" y="558.75" width="30" height="40" as="geometry" />
        </mxCell>
        <mxCell id="yvvdC9rSGpjuioBhzgut-92" value="&lt;font style=&quot;font-size: 20px;&quot;&gt;-2&lt;/font&gt;" style="text;html=1;align=center;verticalAlign=middle;resizable=0;points=[];autosize=1;strokeColor=none;fillColor=none;" vertex="1" parent="1">
          <mxGeometry x="500" y="540" width="40" height="40" as="geometry" />
        </mxCell>
        <mxCell id="yvvdC9rSGpjuioBhzgut-95" value="&lt;font style=&quot;font-size: 20px;&quot;&gt;-1&lt;/font&gt;" style="text;html=1;align=center;verticalAlign=middle;resizable=0;points=[];autosize=1;strokeColor=none;fillColor=none;" vertex="1" parent="1">
          <mxGeometry x="500" y="320" width="40" height="40" as="geometry" />
        </mxCell>
        <mxCell id="yvvdC9rSGpjuioBhzgut-96" value="" style="strokeWidth=5;html=1;shape=mxgraph.flowchart.annotation_1;align=center;pointerEvents=1;rotation=-90;fillColor=#1ba1e2;fontColor=#ffffff;strokeColor=#006EAF;fontStyle=0;labelBorderColor=none;" vertex="1" parent="1">
          <mxGeometry x="480" y="516.25" width="205" height="42.5" as="geometry" />
        </mxCell>
        <mxCell id="yvvdC9rSGpjuioBhzgut-97" value="&lt;font style=&quot;font-size: 20px;&quot;&gt;-3&lt;/font&gt;" style="text;html=1;align=center;verticalAlign=middle;resizable=0;points=[];autosize=1;strokeColor=none;fillColor=none;" vertex="1" parent="1">
          <mxGeometry x="560" y="580" width="40" height="40" as="geometry" />
        </mxCell>
        <mxCell id="yvvdC9rSGpjuioBhzgut-98" value="&lt;span style=&quot;font-size: 20px;&quot;&gt;1&lt;/span&gt;" style="text;html=1;align=center;verticalAlign=middle;resizable=0;points=[];autosize=1;strokeColor=none;fillColor=none;" vertex="1" parent="1">
          <mxGeometry x="567.5" y="600" width="30" height="40" as="geometry" />
        </mxCell>
        <mxCell id="yvvdC9rSGpjuioBhzgut-99" value="&lt;font style=&quot;font-size: 20px;&quot;&gt;2&lt;/font&gt;" style="text;html=1;align=center;verticalAlign=middle;resizable=0;points=[];autosize=1;strokeColor=none;fillColor=none;" vertex="1" parent="1">
          <mxGeometry x="567.5" y="558.75" width="30" height="40" as="geometry" />
        </mxCell>
        <mxCell id="yvvdC9rSGpjuioBhzgut-100" value="&lt;font style=&quot;font-size: 20px;&quot;&gt;-2&lt;/font&gt;" style="text;html=1;align=center;verticalAlign=middle;resizable=0;points=[];autosize=1;strokeColor=none;fillColor=none;" vertex="1" parent="1">
          <mxGeometry x="562.5" y="540" width="40" height="40" as="geometry" />
        </mxCell>
        <mxCell id="yvvdC9rSGpjuioBhzgut-101" value="" style="endArrow=classic;html=1;rounded=0;fontSize=12;fontStyle=1;horizontal=0;strokeWidth=3;entryX=1.117;entryY=1.05;entryDx=0;entryDy=0;entryPerimeter=0;" edge="1" parent="1">
          <mxGeometry width="50" height="50" relative="1" as="geometry">
            <mxPoint x="579.5" y="420" as="sourcePoint" />
            <mxPoint x="578.5" y="362" as="targetPoint" />
          </mxGeometry>
        </mxCell>
        <mxCell id="yvvdC9rSGpjuioBhzgut-102" value="&lt;font style=&quot;font-size: 20px;&quot;&gt;-1&lt;/font&gt;" style="text;html=1;align=center;verticalAlign=middle;resizable=0;points=[];autosize=1;strokeColor=none;fillColor=none;" vertex="1" parent="1">
          <mxGeometry x="562.5" y="320" width="40" height="40" as="geometry" />
        </mxCell>
        <mxCell id="yvvdC9rSGpjuioBhzgut-103" value="&lt;span style=&quot;font-size: 18px;&quot;&gt;-&lt;/span&gt;" style="text;html=1;align=center;verticalAlign=middle;resizable=0;points=[];autosize=1;strokeColor=none;fillColor=none;" vertex="1" parent="1">
          <mxGeometry x="550" y="320" width="30" height="40" as="geometry" />
        </mxCell>
        <mxCell id="yvvdC9rSGpjuioBhzgut-104" value="" style="strokeWidth=5;html=1;shape=mxgraph.flowchart.annotation_1;align=center;pointerEvents=1;rotation=-90;fillColor=#1ba1e2;fontColor=#ffffff;strokeColor=#006EAF;fontStyle=0;labelBorderColor=none;" vertex="1" parent="1">
          <mxGeometry x="537.5" y="516.25" width="205" height="42.5" as="geometry" />
        </mxCell>
        <mxCell id="yvvdC9rSGpjuioBhzgut-105" value="&lt;font style=&quot;font-size: 20px;&quot;&gt;-3&lt;/font&gt;" style="text;html=1;align=center;verticalAlign=middle;resizable=0;points=[];autosize=1;strokeColor=none;fillColor=none;" vertex="1" parent="1">
          <mxGeometry x="617.5" y="580" width="40" height="40" as="geometry" />
        </mxCell>
        <mxCell id="yvvdC9rSGpjuioBhzgut-106" value="&lt;span style=&quot;font-size: 20px;&quot;&gt;1&lt;/span&gt;" style="text;html=1;align=center;verticalAlign=middle;resizable=0;points=[];autosize=1;strokeColor=none;fillColor=none;" vertex="1" parent="1">
          <mxGeometry x="625" y="600" width="30" height="40" as="geometry" />
        </mxCell>
        <mxCell id="yvvdC9rSGpjuioBhzgut-107" value="&lt;font style=&quot;font-size: 20px;&quot;&gt;2&lt;/font&gt;" style="text;html=1;align=center;verticalAlign=middle;resizable=0;points=[];autosize=1;strokeColor=none;fillColor=none;" vertex="1" parent="1">
          <mxGeometry x="625" y="558.75" width="30" height="40" as="geometry" />
        </mxCell>
        <mxCell id="yvvdC9rSGpjuioBhzgut-108" value="&lt;font style=&quot;font-size: 20px;&quot;&gt;-2&lt;/font&gt;" style="text;html=1;align=center;verticalAlign=middle;resizable=0;points=[];autosize=1;strokeColor=none;fillColor=none;" vertex="1" parent="1">
          <mxGeometry x="605" y="320" width="40" height="40" as="geometry" />
        </mxCell>
        <mxCell id="yvvdC9rSGpjuioBhzgut-110" value="&lt;font style=&quot;font-size: 20px;&quot;&gt;-1&lt;/font&gt;" style="text;html=1;align=center;verticalAlign=middle;resizable=0;points=[];autosize=1;strokeColor=none;fillColor=none;" vertex="1" parent="1">
          <mxGeometry x="635" y="320" width="40" height="40" as="geometry" />
        </mxCell>
        <mxCell id="yvvdC9rSGpjuioBhzgut-111" value="" style="strokeWidth=5;html=1;shape=mxgraph.flowchart.annotation_1;align=center;pointerEvents=1;rotation=-90;fillColor=#1ba1e2;fontColor=#ffffff;strokeColor=#006EAF;fontStyle=0;labelBorderColor=none;" vertex="1" parent="1">
          <mxGeometry x="600" y="516.25" width="205" height="42.5" as="geometry" />
        </mxCell>
        <mxCell id="yvvdC9rSGpjuioBhzgut-112" value="&lt;font style=&quot;font-size: 20px;&quot;&gt;-3&lt;/font&gt;" style="text;html=1;align=center;verticalAlign=middle;resizable=0;points=[];autosize=1;strokeColor=none;fillColor=none;" vertex="1" parent="1">
          <mxGeometry x="680" y="580" width="40" height="40" as="geometry" />
        </mxCell>
        <mxCell id="yvvdC9rSGpjuioBhzgut-113" value="&lt;span style=&quot;font-size: 20px;&quot;&gt;1&lt;/span&gt;" style="text;html=1;align=center;verticalAlign=middle;resizable=0;points=[];autosize=1;strokeColor=none;fillColor=none;" vertex="1" parent="1">
          <mxGeometry x="687.5" y="600" width="30" height="40" as="geometry" />
        </mxCell>
        <mxCell id="yvvdC9rSGpjuioBhzgut-114" value="&lt;font style=&quot;font-size: 20px;&quot;&gt;2&lt;/font&gt;" style="text;html=1;align=center;verticalAlign=middle;resizable=0;points=[];autosize=1;strokeColor=none;fillColor=none;" vertex="1" parent="1">
          <mxGeometry x="687.5" y="558.75" width="30" height="40" as="geometry" />
        </mxCell>
        <mxCell id="yvvdC9rSGpjuioBhzgut-115" value="&lt;font style=&quot;font-size: 20px;&quot;&gt;-2&lt;/font&gt;" style="text;html=1;align=center;verticalAlign=middle;resizable=0;points=[];autosize=1;strokeColor=none;fillColor=none;" vertex="1" parent="1">
          <mxGeometry x="662.5" y="320" width="40" height="40" as="geometry" />
        </mxCell>
        <mxCell id="yvvdC9rSGpjuioBhzgut-116" value="&lt;font style=&quot;font-size: 20px;&quot;&gt;-1&lt;/font&gt;" style="text;html=1;align=center;verticalAlign=middle;resizable=0;points=[];autosize=1;strokeColor=none;fillColor=none;" vertex="1" parent="1">
          <mxGeometry x="702.5" y="320" width="40" height="40" as="geometry" />
        </mxCell>
        <mxCell id="yvvdC9rSGpjuioBhzgut-117" value="" style="endArrow=classic;html=1;rounded=0;fontSize=12;fontStyle=1;horizontal=0;strokeWidth=3;" edge="1" parent="1">
          <mxGeometry width="50" height="50" relative="1" as="geometry">
            <mxPoint x="699.5799999999999" y="360" as="sourcePoint" />
            <mxPoint x="699.5799999999999" y="420" as="targetPoint" />
          </mxGeometry>
        </mxCell>
        <mxCell id="yvvdC9rSGpjuioBhzgut-118" value="&lt;font style=&quot;font-size: 20px;&quot;&gt;-1&lt;/font&gt;" style="text;html=1;align=center;verticalAlign=middle;resizable=0;points=[];autosize=1;strokeColor=none;fillColor=none;" vertex="1" parent="1">
          <mxGeometry x="682.5" y="540" width="40" height="40" as="geometry" />
        </mxCell>
        <mxCell id="yvvdC9rSGpjuioBhzgut-119" value="&lt;span style=&quot;font-size: 18px;&quot;&gt;-&lt;/span&gt;" style="text;html=1;align=center;verticalAlign=middle;resizable=0;points=[];autosize=1;strokeColor=none;fillColor=none;" vertex="1" parent="1">
          <mxGeometry x="625" y="320" width="30" height="40" as="geometry" />
        </mxCell>
        <mxCell id="yvvdC9rSGpjuioBhzgut-120" value="&lt;span style=&quot;font-size: 18px;&quot;&gt;-&lt;/span&gt;" style="text;html=1;align=center;verticalAlign=middle;resizable=0;points=[];autosize=1;strokeColor=none;fillColor=none;" vertex="1" parent="1">
          <mxGeometry x="690" y="320" width="30" height="40" as="geometry" />
        </mxCell>
        <mxCell id="yvvdC9rSGpjuioBhzgut-121" value="" style="strokeWidth=5;html=1;shape=mxgraph.flowchart.annotation_1;align=center;pointerEvents=1;rotation=-90;fillColor=#1ba1e2;fontColor=#ffffff;strokeColor=#006EAF;fontStyle=0;labelBorderColor=none;" vertex="1" parent="1">
          <mxGeometry x="657.5" y="516.25" width="205" height="42.5" as="geometry" />
        </mxCell>
        <mxCell id="yvvdC9rSGpjuioBhzgut-122" value="&lt;font style=&quot;font-size: 20px;&quot;&gt;-3&lt;/font&gt;" style="text;html=1;align=center;verticalAlign=middle;resizable=0;points=[];autosize=1;strokeColor=none;fillColor=none;" vertex="1" parent="1">
          <mxGeometry x="737.5" y="580" width="40" height="40" as="geometry" />
        </mxCell>
        <mxCell id="yvvdC9rSGpjuioBhzgut-123" value="&lt;span style=&quot;font-size: 20px;&quot;&gt;1&lt;/span&gt;" style="text;html=1;align=center;verticalAlign=middle;resizable=0;points=[];autosize=1;strokeColor=none;fillColor=none;" vertex="1" parent="1">
          <mxGeometry x="745" y="600" width="30" height="40" as="geometry" />
        </mxCell>
        <mxCell id="yvvdC9rSGpjuioBhzgut-124" value="&lt;span style=&quot;font-size: 18px;&quot;&gt;/&lt;/span&gt;" style="text;html=1;align=center;verticalAlign=middle;resizable=0;points=[];autosize=1;strokeColor=none;fillColor=none;" vertex="1" parent="1">
          <mxGeometry x="745" y="320" width="30" height="40" as="geometry" />
        </mxCell>
        <mxCell id="yvvdC9rSGpjuioBhzgut-125" value="&lt;font style=&quot;font-size: 20px;&quot;&gt;2&lt;/font&gt;" style="text;html=1;align=center;verticalAlign=middle;resizable=0;points=[];autosize=1;strokeColor=none;fillColor=none;" vertex="1" parent="1">
          <mxGeometry x="745" y="558.75" width="30" height="40" as="geometry" />
        </mxCell>
        <mxCell id="yvvdC9rSGpjuioBhzgut-127" value="&lt;font style=&quot;font-size: 20px;&quot;&gt;-1&lt;/font&gt;" style="text;html=1;align=center;verticalAlign=middle;resizable=0;points=[];autosize=1;strokeColor=none;fillColor=none;" vertex="1" parent="1">
          <mxGeometry x="740" y="540" width="40" height="40" as="geometry" />
        </mxCell>
        <mxCell id="yvvdC9rSGpjuioBhzgut-129" value="" style="strokeWidth=5;html=1;shape=mxgraph.flowchart.annotation_1;align=center;pointerEvents=1;rotation=-90;fillColor=#1ba1e2;fontColor=#ffffff;strokeColor=#006EAF;fontStyle=0;labelBorderColor=none;" vertex="1" parent="1">
          <mxGeometry x="717.5" y="516.25" width="205" height="42.5" as="geometry" />
        </mxCell>
        <mxCell id="yvvdC9rSGpjuioBhzgut-130" value="&lt;font style=&quot;font-size: 20px;&quot;&gt;-3&lt;/font&gt;" style="text;html=1;align=center;verticalAlign=middle;resizable=0;points=[];autosize=1;strokeColor=none;fillColor=none;" vertex="1" parent="1">
          <mxGeometry x="797.5" y="580" width="40" height="40" as="geometry" />
        </mxCell>
        <mxCell id="yvvdC9rSGpjuioBhzgut-131" value="&lt;span style=&quot;font-size: 20px;&quot;&gt;1&lt;/span&gt;" style="text;html=1;align=center;verticalAlign=middle;resizable=0;points=[];autosize=1;strokeColor=none;fillColor=none;" vertex="1" parent="1">
          <mxGeometry x="805" y="600" width="30" height="40" as="geometry" />
        </mxCell>
        <mxCell id="yvvdC9rSGpjuioBhzgut-132" value="&lt;span style=&quot;font-size: 18px;&quot;&gt;/&lt;/span&gt;" style="text;html=1;align=center;verticalAlign=middle;resizable=0;points=[];autosize=1;strokeColor=none;fillColor=none;" vertex="1" parent="1">
          <mxGeometry x="805" y="320" width="30" height="40" as="geometry" />
        </mxCell>
        <mxCell id="yvvdC9rSGpjuioBhzgut-133" value="&lt;font style=&quot;font-size: 20px;&quot;&gt;2&lt;/font&gt;" style="text;html=1;align=center;verticalAlign=middle;resizable=0;points=[];autosize=1;strokeColor=none;fillColor=none;" vertex="1" parent="1">
          <mxGeometry x="805" y="558.75" width="30" height="40" as="geometry" />
        </mxCell>
        <mxCell id="yvvdC9rSGpjuioBhzgut-134" value="&lt;font style=&quot;font-size: 20px;&quot;&gt;-1&lt;/font&gt;" style="text;html=1;align=center;verticalAlign=middle;resizable=0;points=[];autosize=1;strokeColor=none;fillColor=none;" vertex="1" parent="1">
          <mxGeometry x="800" y="540" width="40" height="40" as="geometry" />
        </mxCell>
        <mxCell id="yvvdC9rSGpjuioBhzgut-135" value="" style="endArrow=classic;html=1;rounded=0;fontSize=12;fontStyle=1;horizontal=0;strokeWidth=3;entryX=0.383;entryY=1.05;entryDx=0;entryDy=0;entryPerimeter=0;" edge="1" target="yvvdC9rSGpjuioBhzgut-132" parent="1">
          <mxGeometry width="50" height="50" relative="1" as="geometry">
            <mxPoint x="817" y="420" as="sourcePoint" />
            <mxPoint x="817.5" y="370" as="targetPoint" />
          </mxGeometry>
        </mxCell>
        <mxCell id="yvvdC9rSGpjuioBhzgut-141" value="" style="strokeWidth=5;html=1;shape=mxgraph.flowchart.annotation_1;align=center;pointerEvents=1;rotation=-90;fillColor=#1ba1e2;fontColor=#ffffff;strokeColor=#006EAF;fontStyle=0;labelBorderColor=none;" vertex="1" parent="1">
          <mxGeometry x="775" y="516.25" width="205" height="42.5" as="geometry" />
        </mxCell>
        <mxCell id="yvvdC9rSGpjuioBhzgut-142" value="&lt;font style=&quot;font-size: 20px;&quot;&gt;-3&lt;/font&gt;" style="text;html=1;align=center;verticalAlign=middle;resizable=0;points=[];autosize=1;strokeColor=none;fillColor=none;" vertex="1" parent="1">
          <mxGeometry x="855" y="580" width="40" height="40" as="geometry" />
        </mxCell>
        <mxCell id="yvvdC9rSGpjuioBhzgut-143" value="&lt;span style=&quot;font-size: 20px;&quot;&gt;1&lt;/span&gt;" style="text;html=1;align=center;verticalAlign=middle;resizable=0;points=[];autosize=1;strokeColor=none;fillColor=none;" vertex="1" parent="1">
          <mxGeometry x="862.5" y="600" width="30" height="40" as="geometry" />
        </mxCell>
        <mxCell id="yvvdC9rSGpjuioBhzgut-144" value="&lt;span style=&quot;font-size: 18px;&quot;&gt;/&lt;/span&gt;" style="text;html=1;align=center;verticalAlign=middle;resizable=0;points=[];autosize=1;strokeColor=none;fillColor=none;" vertex="1" parent="1">
          <mxGeometry x="862.5" y="320" width="30" height="40" as="geometry" />
        </mxCell>
        <mxCell id="yvvdC9rSGpjuioBhzgut-145" value="&lt;font style=&quot;font-size: 20px;&quot;&gt;2&lt;/font&gt;" style="text;html=1;align=center;verticalAlign=middle;resizable=0;points=[];autosize=1;strokeColor=none;fillColor=none;" vertex="1" parent="1">
          <mxGeometry x="862.5" y="558.75" width="30" height="40" as="geometry" />
        </mxCell>
        <mxCell id="yvvdC9rSGpjuioBhzgut-146" value="&lt;font style=&quot;font-size: 20px;&quot;&gt;-1&lt;/font&gt;" style="text;html=1;align=center;verticalAlign=middle;resizable=0;points=[];autosize=1;strokeColor=none;fillColor=none;" vertex="1" parent="1">
          <mxGeometry x="870" y="320" width="40" height="40" as="geometry" />
        </mxCell>
        <mxCell id="yvvdC9rSGpjuioBhzgut-148" value="" style="strokeWidth=5;html=1;shape=mxgraph.flowchart.annotation_1;align=center;pointerEvents=1;rotation=-90;fillColor=#1ba1e2;fontColor=#ffffff;strokeColor=#006EAF;fontStyle=0;labelBorderColor=none;" vertex="1" parent="1">
          <mxGeometry x="830" y="516.25" width="205" height="42.5" as="geometry" />
        </mxCell>
        <mxCell id="yvvdC9rSGpjuioBhzgut-149" value="&lt;font style=&quot;font-size: 20px;&quot;&gt;-3&lt;/font&gt;" style="text;html=1;align=center;verticalAlign=middle;resizable=0;points=[];autosize=1;strokeColor=none;fillColor=none;" vertex="1" parent="1">
          <mxGeometry x="910" y="580" width="40" height="40" as="geometry" />
        </mxCell>
        <mxCell id="yvvdC9rSGpjuioBhzgut-150" value="&lt;span style=&quot;font-size: 20px;&quot;&gt;1&lt;/span&gt;" style="text;html=1;align=center;verticalAlign=middle;resizable=0;points=[];autosize=1;strokeColor=none;fillColor=none;" vertex="1" parent="1">
          <mxGeometry x="917.5" y="600" width="30" height="40" as="geometry" />
        </mxCell>
        <mxCell id="yvvdC9rSGpjuioBhzgut-151" value="&lt;span style=&quot;font-size: 18px;&quot;&gt;/&lt;/span&gt;" style="text;html=1;align=center;verticalAlign=middle;resizable=0;points=[];autosize=1;strokeColor=none;fillColor=none;" vertex="1" parent="1">
          <mxGeometry x="917.5" y="320" width="30" height="40" as="geometry" />
        </mxCell>
        <mxCell id="yvvdC9rSGpjuioBhzgut-152" value="&lt;font style=&quot;font-size: 20px;&quot;&gt;2&lt;/font&gt;" style="text;html=1;align=center;verticalAlign=middle;resizable=0;points=[];autosize=1;strokeColor=none;fillColor=none;" vertex="1" parent="1">
          <mxGeometry x="917.5" y="558.75" width="30" height="40" as="geometry" />
        </mxCell>
        <mxCell id="yvvdC9rSGpjuioBhzgut-153" value="&lt;font style=&quot;font-size: 20px;&quot;&gt;-1&lt;/font&gt;" style="text;html=1;align=center;verticalAlign=middle;resizable=0;points=[];autosize=1;strokeColor=none;fillColor=none;" vertex="1" parent="1">
          <mxGeometry x="925" y="320" width="40" height="40" as="geometry" />
        </mxCell>
        <mxCell id="yvvdC9rSGpjuioBhzgut-154" value="" style="endArrow=classic;html=1;rounded=0;fontSize=12;fontStyle=1;horizontal=0;strokeWidth=3;entryX=0.383;entryY=1.05;entryDx=0;entryDy=0;entryPerimeter=0;" edge="1" target="yvvdC9rSGpjuioBhzgut-151" parent="1">
          <mxGeometry width="50" height="50" relative="1" as="geometry">
            <mxPoint x="929.5" y="420" as="sourcePoint" />
            <mxPoint x="930" y="370" as="targetPoint" />
          </mxGeometry>
        </mxCell>
        <mxCell id="yvvdC9rSGpjuioBhzgut-155" value="" style="strokeWidth=5;html=1;shape=mxgraph.flowchart.annotation_1;align=center;pointerEvents=1;rotation=-90;fillColor=#1ba1e2;fontColor=#ffffff;strokeColor=#006EAF;fontStyle=0;labelBorderColor=none;" vertex="1" parent="1">
          <mxGeometry x="890" y="516.25" width="205" height="42.5" as="geometry" />
        </mxCell>
        <mxCell id="yvvdC9rSGpjuioBhzgut-156" value="&lt;font style=&quot;font-size: 20px;&quot;&gt;-3&lt;/font&gt;" style="text;html=1;align=center;verticalAlign=middle;resizable=0;points=[];autosize=1;strokeColor=none;fillColor=none;" vertex="1" parent="1">
          <mxGeometry x="970" y="580" width="40" height="40" as="geometry" />
        </mxCell>
        <mxCell id="yvvdC9rSGpjuioBhzgut-157" value="&lt;span style=&quot;font-size: 20px;&quot;&gt;1&lt;/span&gt;" style="text;html=1;align=center;verticalAlign=middle;resizable=0;points=[];autosize=1;strokeColor=none;fillColor=none;" vertex="1" parent="1">
          <mxGeometry x="977.5" y="600" width="30" height="40" as="geometry" />
        </mxCell>
        <mxCell id="yvvdC9rSGpjuioBhzgut-158" value="&lt;span style=&quot;font-size: 18px;&quot;&gt;/&lt;/span&gt;" style="text;html=1;align=center;verticalAlign=middle;resizable=0;points=[];autosize=1;strokeColor=none;fillColor=none;" vertex="1" parent="1">
          <mxGeometry x="977.5" y="320" width="30" height="40" as="geometry" />
        </mxCell>
        <mxCell id="yvvdC9rSGpjuioBhzgut-159" value="&lt;font style=&quot;font-size: 20px;&quot;&gt;2&lt;/font&gt;" style="text;html=1;align=center;verticalAlign=middle;resizable=0;points=[];autosize=1;strokeColor=none;fillColor=none;" vertex="1" parent="1">
          <mxGeometry x="965" y="320" width="30" height="40" as="geometry" />
        </mxCell>
        <mxCell id="yvvdC9rSGpjuioBhzgut-160" value="&lt;font style=&quot;font-size: 20px;&quot;&gt;-1&lt;/font&gt;" style="text;html=1;align=center;verticalAlign=middle;resizable=0;points=[];autosize=1;strokeColor=none;fillColor=none;" vertex="1" parent="1">
          <mxGeometry x="985" y="320" width="40" height="40" as="geometry" />
        </mxCell>
        <mxCell id="yvvdC9rSGpjuioBhzgut-162" value="" style="strokeWidth=5;html=1;shape=mxgraph.flowchart.annotation_1;align=center;pointerEvents=1;rotation=-90;fillColor=#1ba1e2;fontColor=#ffffff;strokeColor=#006EAF;fontStyle=0;labelBorderColor=none;" vertex="1" parent="1">
          <mxGeometry x="947.5" y="516.25" width="205" height="42.5" as="geometry" />
        </mxCell>
        <mxCell id="yvvdC9rSGpjuioBhzgut-163" value="&lt;font style=&quot;font-size: 20px;&quot;&gt;-3&lt;/font&gt;" style="text;html=1;align=center;verticalAlign=middle;resizable=0;points=[];autosize=1;strokeColor=none;fillColor=none;" vertex="1" parent="1">
          <mxGeometry x="1027.5" y="580" width="40" height="40" as="geometry" />
        </mxCell>
        <mxCell id="yvvdC9rSGpjuioBhzgut-164" value="&lt;span style=&quot;font-size: 20px;&quot;&gt;1&lt;/span&gt;" style="text;html=1;align=center;verticalAlign=middle;resizable=0;points=[];autosize=1;strokeColor=none;fillColor=none;" vertex="1" parent="1">
          <mxGeometry x="1035" y="600" width="30" height="40" as="geometry" />
        </mxCell>
        <mxCell id="yvvdC9rSGpjuioBhzgut-165" value="&lt;span style=&quot;font-size: 18px;&quot;&gt;/&lt;/span&gt;" style="text;html=1;align=center;verticalAlign=middle;resizable=0;points=[];autosize=1;strokeColor=none;fillColor=none;" vertex="1" parent="1">
          <mxGeometry x="1035" y="320" width="30" height="40" as="geometry" />
        </mxCell>
        <mxCell id="yvvdC9rSGpjuioBhzgut-166" value="&lt;font style=&quot;font-size: 20px;&quot;&gt;2&lt;/font&gt;" style="text;html=1;align=center;verticalAlign=middle;resizable=0;points=[];autosize=1;strokeColor=none;fillColor=none;" vertex="1" parent="1">
          <mxGeometry x="1022.5" y="320" width="30" height="40" as="geometry" />
        </mxCell>
        <mxCell id="yvvdC9rSGpjuioBhzgut-167" value="&lt;font style=&quot;font-size: 20px;&quot;&gt;-1&lt;/font&gt;" style="text;html=1;align=center;verticalAlign=middle;resizable=0;points=[];autosize=1;strokeColor=none;fillColor=none;" vertex="1" parent="1">
          <mxGeometry x="1042.5" y="320" width="40" height="40" as="geometry" />
        </mxCell>
        <mxCell id="yvvdC9rSGpjuioBhzgut-168" value="" style="endArrow=classic;html=1;rounded=0;fontSize=12;fontStyle=1;horizontal=0;strokeWidth=3;" edge="1" parent="1">
          <mxGeometry width="50" height="50" relative="1" as="geometry">
            <mxPoint x="1052.5" y="360" as="sourcePoint" />
            <mxPoint x="1052.5" y="420" as="targetPoint" />
          </mxGeometry>
        </mxCell>
        <mxCell id="yvvdC9rSGpjuioBhzgut-169" value="&lt;font style=&quot;font-size: 20px;&quot;&gt;-2&lt;/font&gt;" style="text;html=1;align=center;verticalAlign=middle;resizable=0;points=[];autosize=1;strokeColor=none;fillColor=none;" vertex="1" parent="1">
          <mxGeometry x="1027.5" y="558.75" width="40" height="40" as="geometry" />
        </mxCell>
        <mxCell id="yvvdC9rSGpjuioBhzgut-170" value="" style="strokeWidth=5;html=1;shape=mxgraph.flowchart.annotation_1;align=center;pointerEvents=1;rotation=-90;fillColor=#1ba1e2;fontColor=#ffffff;strokeColor=#006EAF;fontStyle=0;labelBorderColor=none;" vertex="1" parent="1">
          <mxGeometry x="1007.5" y="516.25" width="205" height="42.5" as="geometry" />
        </mxCell>
        <mxCell id="yvvdC9rSGpjuioBhzgut-171" value="&lt;font style=&quot;font-size: 20px;&quot;&gt;-3&lt;/font&gt;" style="text;html=1;align=center;verticalAlign=middle;resizable=0;points=[];autosize=1;strokeColor=none;fillColor=none;" vertex="1" parent="1">
          <mxGeometry x="1087.5" y="580" width="40" height="40" as="geometry" />
        </mxCell>
        <mxCell id="yvvdC9rSGpjuioBhzgut-172" value="&lt;span style=&quot;font-size: 20px;&quot;&gt;1&lt;/span&gt;" style="text;html=1;align=center;verticalAlign=middle;resizable=0;points=[];autosize=1;strokeColor=none;fillColor=none;" vertex="1" parent="1">
          <mxGeometry x="1095" y="600" width="30" height="40" as="geometry" />
        </mxCell>
        <mxCell id="yvvdC9rSGpjuioBhzgut-173" value="&lt;span style=&quot;font-size: 18px;&quot;&gt;*&lt;/span&gt;" style="text;html=1;align=center;verticalAlign=middle;resizable=0;points=[];autosize=1;strokeColor=none;fillColor=none;" vertex="1" parent="1">
          <mxGeometry x="1095" y="320" width="30" height="40" as="geometry" />
        </mxCell>
        <mxCell id="yvvdC9rSGpjuioBhzgut-176" value="&lt;font style=&quot;font-size: 20px;&quot;&gt;-2&lt;/font&gt;" style="text;html=1;align=center;verticalAlign=middle;resizable=0;points=[];autosize=1;strokeColor=none;fillColor=none;" vertex="1" parent="1">
          <mxGeometry x="1087.5" y="558.75" width="40" height="40" as="geometry" />
        </mxCell>
        <mxCell id="yvvdC9rSGpjuioBhzgut-177" value="" style="strokeWidth=5;html=1;shape=mxgraph.flowchart.annotation_1;align=center;pointerEvents=1;rotation=-90;fillColor=#1ba1e2;fontColor=#ffffff;strokeColor=#006EAF;fontStyle=0;labelBorderColor=none;" vertex="1" parent="1">
          <mxGeometry x="1065" y="516.25" width="205" height="42.5" as="geometry" />
        </mxCell>
        <mxCell id="yvvdC9rSGpjuioBhzgut-178" value="&lt;font style=&quot;font-size: 20px;&quot;&gt;-3&lt;/font&gt;" style="text;html=1;align=center;verticalAlign=middle;resizable=0;points=[];autosize=1;strokeColor=none;fillColor=none;" vertex="1" parent="1">
          <mxGeometry x="1145" y="580" width="40" height="40" as="geometry" />
        </mxCell>
        <mxCell id="yvvdC9rSGpjuioBhzgut-179" value="&lt;span style=&quot;font-size: 20px;&quot;&gt;1&lt;/span&gt;" style="text;html=1;align=center;verticalAlign=middle;resizable=0;points=[];autosize=1;strokeColor=none;fillColor=none;" vertex="1" parent="1">
          <mxGeometry x="1152.5" y="600" width="30" height="40" as="geometry" />
        </mxCell>
        <mxCell id="yvvdC9rSGpjuioBhzgut-180" value="&lt;span style=&quot;font-size: 18px;&quot;&gt;*&lt;/span&gt;" style="text;html=1;align=center;verticalAlign=middle;resizable=0;points=[];autosize=1;strokeColor=none;fillColor=none;" vertex="1" parent="1">
          <mxGeometry x="1152.5" y="320" width="30" height="40" as="geometry" />
        </mxCell>
        <mxCell id="yvvdC9rSGpjuioBhzgut-181" value="&lt;font style=&quot;font-size: 20px;&quot;&gt;-2&lt;/font&gt;" style="text;html=1;align=center;verticalAlign=middle;resizable=0;points=[];autosize=1;strokeColor=none;fillColor=none;" vertex="1" parent="1">
          <mxGeometry x="1145" y="558.75" width="40" height="40" as="geometry" />
        </mxCell>
        <mxCell id="yvvdC9rSGpjuioBhzgut-182" value="" style="endArrow=classic;html=1;rounded=0;fontSize=12;fontStyle=1;horizontal=0;strokeWidth=3;entryX=0.383;entryY=1.05;entryDx=0;entryDy=0;entryPerimeter=0;" edge="1" parent="1">
          <mxGeometry width="50" height="50" relative="1" as="geometry">
            <mxPoint x="1167.6" y="418" as="sourcePoint" />
            <mxPoint x="1167.1" y="360" as="targetPoint" />
          </mxGeometry>
        </mxCell>
        <mxCell id="yvvdC9rSGpjuioBhzgut-183" value="" style="strokeWidth=5;html=1;shape=mxgraph.flowchart.annotation_1;align=center;pointerEvents=1;rotation=-90;fillColor=#1ba1e2;fontColor=#ffffff;strokeColor=#006EAF;fontStyle=0;labelBorderColor=none;" vertex="1" parent="1">
          <mxGeometry x="1120" y="516.25" width="205" height="42.5" as="geometry" />
        </mxCell>
        <mxCell id="yvvdC9rSGpjuioBhzgut-184" value="&lt;font style=&quot;font-size: 20px;&quot;&gt;-3&lt;/font&gt;" style="text;html=1;align=center;verticalAlign=middle;resizable=0;points=[];autosize=1;strokeColor=none;fillColor=none;" vertex="1" parent="1">
          <mxGeometry x="1200" y="580" width="40" height="40" as="geometry" />
        </mxCell>
        <mxCell id="yvvdC9rSGpjuioBhzgut-185" value="&lt;span style=&quot;font-size: 20px;&quot;&gt;1&lt;/span&gt;" style="text;html=1;align=center;verticalAlign=middle;resizable=0;points=[];autosize=1;strokeColor=none;fillColor=none;" vertex="1" parent="1">
          <mxGeometry x="1207.5" y="600" width="30" height="40" as="geometry" />
        </mxCell>
        <mxCell id="yvvdC9rSGpjuioBhzgut-186" value="&lt;span style=&quot;font-size: 18px;&quot;&gt;*&lt;/span&gt;" style="text;html=1;align=center;verticalAlign=middle;resizable=0;points=[];autosize=1;strokeColor=none;fillColor=none;" vertex="1" parent="1">
          <mxGeometry x="1200" y="320" width="30" height="40" as="geometry" />
        </mxCell>
        <mxCell id="yvvdC9rSGpjuioBhzgut-187" value="&lt;font style=&quot;font-size: 20px;&quot;&gt;-2&lt;/font&gt;" style="text;html=1;align=center;verticalAlign=middle;resizable=0;points=[];autosize=1;strokeColor=none;fillColor=none;" vertex="1" parent="1">
          <mxGeometry x="1212.5" y="310" width="40" height="40" as="geometry" />
        </mxCell>
        <mxCell id="yvvdC9rSGpjuioBhzgut-189" value="" style="strokeWidth=5;html=1;shape=mxgraph.flowchart.annotation_1;align=center;pointerEvents=1;rotation=-90;fillColor=#1ba1e2;fontColor=#ffffff;strokeColor=#006EAF;fontStyle=0;labelBorderColor=none;" vertex="1" parent="1">
          <mxGeometry x="1173" y="516.25" width="205" height="42.5" as="geometry" />
        </mxCell>
        <mxCell id="yvvdC9rSGpjuioBhzgut-190" value="&lt;font style=&quot;font-size: 20px;&quot;&gt;-3&lt;/font&gt;" style="text;html=1;align=center;verticalAlign=middle;resizable=0;points=[];autosize=1;strokeColor=none;fillColor=none;" vertex="1" parent="1">
          <mxGeometry x="1253" y="580" width="40" height="40" as="geometry" />
        </mxCell>
        <mxCell id="yvvdC9rSGpjuioBhzgut-191" value="&lt;span style=&quot;font-size: 20px;&quot;&gt;1&lt;/span&gt;" style="text;html=1;align=center;verticalAlign=middle;resizable=0;points=[];autosize=1;strokeColor=none;fillColor=none;" vertex="1" parent="1">
          <mxGeometry x="1260.5" y="600" width="30" height="40" as="geometry" />
        </mxCell>
        <mxCell id="yvvdC9rSGpjuioBhzgut-192" value="&lt;span style=&quot;font-size: 18px;&quot;&gt;*&lt;/span&gt;" style="text;html=1;align=center;verticalAlign=middle;resizable=0;points=[];autosize=1;strokeColor=none;fillColor=none;" vertex="1" parent="1">
          <mxGeometry x="1249.25" y="320" width="30" height="40" as="geometry" />
        </mxCell>
        <mxCell id="yvvdC9rSGpjuioBhzgut-193" value="&lt;font style=&quot;font-size: 20px;&quot;&gt;-2&lt;/font&gt;" style="text;html=1;align=center;verticalAlign=middle;resizable=0;points=[];autosize=1;strokeColor=none;fillColor=none;" vertex="1" parent="1">
          <mxGeometry x="1261.75" y="310" width="40" height="40" as="geometry" />
        </mxCell>
        <mxCell id="yvvdC9rSGpjuioBhzgut-194" value="" style="endArrow=classic;html=1;rounded=0;fontSize=12;fontStyle=1;horizontal=0;strokeWidth=3;entryX=0.383;entryY=1.05;entryDx=0;entryDy=0;entryPerimeter=0;" edge="1" parent="1">
          <mxGeometry width="50" height="50" relative="1" as="geometry">
            <mxPoint x="1275.6" y="418" as="sourcePoint" />
            <mxPoint x="1275.1" y="360" as="targetPoint" />
          </mxGeometry>
        </mxCell>
        <mxCell id="yvvdC9rSGpjuioBhzgut-195" value="" style="strokeWidth=5;html=1;shape=mxgraph.flowchart.annotation_1;align=center;pointerEvents=1;rotation=-90;fillColor=#1ba1e2;fontColor=#ffffff;strokeColor=#006EAF;fontStyle=0;labelBorderColor=none;" vertex="1" parent="1">
          <mxGeometry x="1230" y="516.25" width="205" height="42.5" as="geometry" />
        </mxCell>
        <mxCell id="yvvdC9rSGpjuioBhzgut-196" value="&lt;font style=&quot;font-size: 20px;&quot;&gt;-3&lt;/font&gt;" style="text;html=1;align=center;verticalAlign=middle;resizable=0;points=[];autosize=1;strokeColor=none;fillColor=none;" vertex="1" parent="1">
          <mxGeometry x="1293" y="310" width="40" height="40" as="geometry" />
        </mxCell>
        <mxCell id="yvvdC9rSGpjuioBhzgut-197" value="&lt;span style=&quot;font-size: 20px;&quot;&gt;1&lt;/span&gt;" style="text;html=1;align=center;verticalAlign=middle;resizable=0;points=[];autosize=1;strokeColor=none;fillColor=none;" vertex="1" parent="1">
          <mxGeometry x="1317.5" y="600" width="30" height="40" as="geometry" />
        </mxCell>
        <mxCell id="yvvdC9rSGpjuioBhzgut-198" value="&lt;span style=&quot;font-size: 18px;&quot;&gt;*&lt;/span&gt;" style="text;html=1;align=center;verticalAlign=middle;resizable=0;points=[];autosize=1;strokeColor=none;fillColor=none;" vertex="1" parent="1">
          <mxGeometry x="1317.5" y="320" width="30" height="40" as="geometry" />
        </mxCell>
        <mxCell id="yvvdC9rSGpjuioBhzgut-199" value="&lt;font style=&quot;font-size: 20px;&quot;&gt;-2&lt;/font&gt;" style="text;html=1;align=center;verticalAlign=middle;resizable=0;points=[];autosize=1;strokeColor=none;fillColor=none;" vertex="1" parent="1">
          <mxGeometry x="1330" y="310" width="40" height="40" as="geometry" />
        </mxCell>
        <mxCell id="yvvdC9rSGpjuioBhzgut-201" value="" style="strokeWidth=5;html=1;shape=mxgraph.flowchart.annotation_1;align=center;pointerEvents=1;rotation=-90;fillColor=#1ba1e2;fontColor=#ffffff;strokeColor=#006EAF;fontStyle=0;labelBorderColor=none;" vertex="1" parent="1">
          <mxGeometry x="1290" y="516.25" width="205" height="42.5" as="geometry" />
        </mxCell>
        <mxCell id="yvvdC9rSGpjuioBhzgut-202" value="&lt;font style=&quot;font-size: 20px;&quot;&gt;-3&lt;/font&gt;" style="text;html=1;align=center;verticalAlign=middle;resizable=0;points=[];autosize=1;strokeColor=none;fillColor=none;" vertex="1" parent="1">
          <mxGeometry x="1353" y="310" width="40" height="40" as="geometry" />
        </mxCell>
        <mxCell id="yvvdC9rSGpjuioBhzgut-203" value="&lt;span style=&quot;font-size: 20px;&quot;&gt;1&lt;/span&gt;" style="text;html=1;align=center;verticalAlign=middle;resizable=0;points=[];autosize=1;strokeColor=none;fillColor=none;" vertex="1" parent="1">
          <mxGeometry x="1377.5" y="600" width="30" height="40" as="geometry" />
        </mxCell>
        <mxCell id="yvvdC9rSGpjuioBhzgut-204" value="&lt;span style=&quot;font-size: 18px;&quot;&gt;*&lt;/span&gt;" style="text;html=1;align=center;verticalAlign=middle;resizable=0;points=[];autosize=1;strokeColor=none;fillColor=none;" vertex="1" parent="1">
          <mxGeometry x="1377.5" y="320" width="30" height="40" as="geometry" />
        </mxCell>
        <mxCell id="yvvdC9rSGpjuioBhzgut-205" value="&lt;font style=&quot;font-size: 20px;&quot;&gt;-2&lt;/font&gt;" style="text;html=1;align=center;verticalAlign=middle;resizable=0;points=[];autosize=1;strokeColor=none;fillColor=none;" vertex="1" parent="1">
          <mxGeometry x="1390" y="310" width="40" height="40" as="geometry" />
        </mxCell>
        <mxCell id="yvvdC9rSGpjuioBhzgut-206" value="" style="endArrow=classic;html=1;rounded=0;fontSize=12;fontStyle=1;horizontal=0;strokeWidth=3;" edge="1" parent="1">
          <mxGeometry width="50" height="50" relative="1" as="geometry">
            <mxPoint x="1392.13" y="360" as="sourcePoint" />
            <mxPoint x="1392.13" y="420" as="targetPoint" />
          </mxGeometry>
        </mxCell>
        <mxCell id="yvvdC9rSGpjuioBhzgut-207" value="&lt;span style=&quot;font-size: 20px;&quot;&gt;6&lt;/span&gt;" style="text;html=1;align=center;verticalAlign=middle;resizable=0;points=[];autosize=1;strokeColor=none;fillColor=none;" vertex="1" parent="1">
          <mxGeometry x="1378" y="580" width="30" height="40" as="geometry" />
        </mxCell>
        <mxCell id="yvvdC9rSGpjuioBhzgut-208" value="" style="strokeWidth=5;html=1;shape=mxgraph.flowchart.annotation_1;align=center;pointerEvents=1;rotation=-90;fillColor=#1ba1e2;fontColor=#ffffff;strokeColor=#006EAF;fontStyle=0;labelBorderColor=none;" vertex="1" parent="1">
          <mxGeometry x="1347.5" y="516.25" width="205" height="42.5" as="geometry" />
        </mxCell>
        <mxCell id="yvvdC9rSGpjuioBhzgut-209" value="&lt;span style=&quot;font-size: 20px;&quot;&gt;1&lt;/span&gt;" style="text;html=1;align=center;verticalAlign=middle;resizable=0;points=[];autosize=1;strokeColor=none;fillColor=none;" vertex="1" parent="1">
          <mxGeometry x="1435" y="600" width="30" height="40" as="geometry" />
        </mxCell>
        <mxCell id="yvvdC9rSGpjuioBhzgut-210" value="&lt;span style=&quot;font-size: 18px;&quot;&gt;+&lt;/span&gt;" style="text;html=1;align=center;verticalAlign=middle;resizable=0;points=[];autosize=1;strokeColor=none;fillColor=none;" vertex="1" parent="1">
          <mxGeometry x="1435" y="320" width="30" height="40" as="geometry" />
        </mxCell>
        <mxCell id="yvvdC9rSGpjuioBhzgut-213" value="&lt;span style=&quot;font-size: 20px;&quot;&gt;6&lt;/span&gt;" style="text;html=1;align=center;verticalAlign=middle;resizable=0;points=[];autosize=1;strokeColor=none;fillColor=none;" vertex="1" parent="1">
          <mxGeometry x="1435.5" y="580" width="30" height="40" as="geometry" />
        </mxCell>
        <mxCell id="yvvdC9rSGpjuioBhzgut-214" value="" style="strokeWidth=5;html=1;shape=mxgraph.flowchart.annotation_1;align=center;pointerEvents=1;rotation=-90;fillColor=#1ba1e2;fontColor=#ffffff;strokeColor=#006EAF;fontStyle=0;labelBorderColor=none;" vertex="1" parent="1">
          <mxGeometry x="1407.5" y="516.25" width="205" height="42.5" as="geometry" />
        </mxCell>
        <mxCell id="yvvdC9rSGpjuioBhzgut-215" value="&lt;span style=&quot;font-size: 20px;&quot;&gt;1&lt;/span&gt;" style="text;html=1;align=center;verticalAlign=middle;resizable=0;points=[];autosize=1;strokeColor=none;fillColor=none;" vertex="1" parent="1">
          <mxGeometry x="1495" y="600" width="30" height="40" as="geometry" />
        </mxCell>
        <mxCell id="yvvdC9rSGpjuioBhzgut-216" value="&lt;span style=&quot;font-size: 18px;&quot;&gt;+&lt;/span&gt;" style="text;html=1;align=center;verticalAlign=middle;resizable=0;points=[];autosize=1;strokeColor=none;fillColor=none;" vertex="1" parent="1">
          <mxGeometry x="1495" y="320" width="30" height="40" as="geometry" />
        </mxCell>
        <mxCell id="yvvdC9rSGpjuioBhzgut-217" value="&lt;span style=&quot;font-size: 20px;&quot;&gt;6&lt;/span&gt;" style="text;html=1;align=center;verticalAlign=middle;resizable=0;points=[];autosize=1;strokeColor=none;fillColor=none;" vertex="1" parent="1">
          <mxGeometry x="1495.5" y="580" width="30" height="40" as="geometry" />
        </mxCell>
        <mxCell id="yvvdC9rSGpjuioBhzgut-218" value="" style="endArrow=classic;html=1;rounded=0;fontSize=12;fontStyle=1;horizontal=0;strokeWidth=3;entryX=0.383;entryY=1.05;entryDx=0;entryDy=0;entryPerimeter=0;" edge="1" parent="1">
          <mxGeometry width="50" height="50" relative="1" as="geometry">
            <mxPoint x="1510.63" y="418" as="sourcePoint" />
            <mxPoint x="1510.13" y="360" as="targetPoint" />
          </mxGeometry>
        </mxCell>
        <mxCell id="yvvdC9rSGpjuioBhzgut-219" value="" style="strokeWidth=5;html=1;shape=mxgraph.flowchart.annotation_1;align=center;pointerEvents=1;rotation=-90;fillColor=#1ba1e2;fontColor=#ffffff;strokeColor=#006EAF;fontStyle=0;labelBorderColor=none;" vertex="1" parent="1">
          <mxGeometry x="1460" y="516.25" width="205" height="42.5" as="geometry" />
        </mxCell>
        <mxCell id="yvvdC9rSGpjuioBhzgut-220" value="&lt;span style=&quot;font-size: 20px;&quot;&gt;1&lt;/span&gt;" style="text;html=1;align=center;verticalAlign=middle;resizable=0;points=[];autosize=1;strokeColor=none;fillColor=none;" vertex="1" parent="1">
          <mxGeometry x="1547.5" y="600" width="30" height="40" as="geometry" />
        </mxCell>
        <mxCell id="yvvdC9rSGpjuioBhzgut-221" value="&lt;span style=&quot;font-size: 18px;&quot;&gt;+&lt;/span&gt;" style="text;html=1;align=center;verticalAlign=middle;resizable=0;points=[];autosize=1;strokeColor=none;fillColor=none;" vertex="1" parent="1">
          <mxGeometry x="1541.25" y="320" width="30" height="40" as="geometry" />
        </mxCell>
        <mxCell id="yvvdC9rSGpjuioBhzgut-222" value="&lt;span style=&quot;font-size: 20px;&quot;&gt;6&lt;/span&gt;" style="text;html=1;align=center;verticalAlign=middle;resizable=0;points=[];autosize=1;strokeColor=none;fillColor=none;" vertex="1" parent="1">
          <mxGeometry x="1553.75" y="320" width="30" height="40" as="geometry" />
        </mxCell>
        <mxCell id="yvvdC9rSGpjuioBhzgut-224" value="" style="strokeWidth=5;html=1;shape=mxgraph.flowchart.annotation_1;align=center;pointerEvents=1;rotation=-90;fillColor=#1ba1e2;fontColor=#ffffff;strokeColor=#006EAF;fontStyle=0;labelBorderColor=none;" vertex="1" parent="1">
          <mxGeometry x="1520" y="516.25" width="205" height="42.5" as="geometry" />
        </mxCell>
        <mxCell id="yvvdC9rSGpjuioBhzgut-225" value="&lt;span style=&quot;font-size: 20px;&quot;&gt;1&lt;/span&gt;" style="text;html=1;align=center;verticalAlign=middle;resizable=0;points=[];autosize=1;strokeColor=none;fillColor=none;" vertex="1" parent="1">
          <mxGeometry x="1607.5" y="600" width="30" height="40" as="geometry" />
        </mxCell>
        <mxCell id="yvvdC9rSGpjuioBhzgut-226" value="&lt;span style=&quot;font-size: 18px;&quot;&gt;+&lt;/span&gt;" style="text;html=1;align=center;verticalAlign=middle;resizable=0;points=[];autosize=1;strokeColor=none;fillColor=none;" vertex="1" parent="1">
          <mxGeometry x="1601.25" y="320" width="30" height="40" as="geometry" />
        </mxCell>
        <mxCell id="yvvdC9rSGpjuioBhzgut-227" value="&lt;span style=&quot;font-size: 20px;&quot;&gt;6&lt;/span&gt;" style="text;html=1;align=center;verticalAlign=middle;resizable=0;points=[];autosize=1;strokeColor=none;fillColor=none;" vertex="1" parent="1">
          <mxGeometry x="1613.75" y="320" width="30" height="40" as="geometry" />
        </mxCell>
        <mxCell id="yvvdC9rSGpjuioBhzgut-229" value="" style="endArrow=classic;html=1;rounded=0;fontSize=12;fontStyle=1;horizontal=0;strokeWidth=3;entryX=0.383;entryY=1.05;entryDx=0;entryDy=0;entryPerimeter=0;" edge="1" parent="1">
          <mxGeometry width="50" height="50" relative="1" as="geometry">
            <mxPoint x="1622.6299999999999" y="418" as="sourcePoint" />
            <mxPoint x="1622.1299999999999" y="360" as="targetPoint" />
          </mxGeometry>
        </mxCell>
        <mxCell id="yvvdC9rSGpjuioBhzgut-230" value="" style="strokeWidth=5;html=1;shape=mxgraph.flowchart.annotation_1;align=center;pointerEvents=1;rotation=-90;fillColor=#1ba1e2;fontColor=#ffffff;strokeColor=#006EAF;fontStyle=0;labelBorderColor=none;" vertex="1" parent="1">
          <mxGeometry x="1577.5" y="516.25" width="205" height="42.5" as="geometry" />
        </mxCell>
        <mxCell id="yvvdC9rSGpjuioBhzgut-231" value="&lt;span style=&quot;font-size: 20px;&quot;&gt;1&lt;/span&gt;" style="text;html=1;align=center;verticalAlign=middle;resizable=0;points=[];autosize=1;strokeColor=none;fillColor=none;" vertex="1" parent="1">
          <mxGeometry x="1650" y="320" width="30" height="40" as="geometry" />
        </mxCell>
        <mxCell id="yvvdC9rSGpjuioBhzgut-232" value="&lt;span style=&quot;font-size: 18px;&quot;&gt;+&lt;/span&gt;" style="text;html=1;align=center;verticalAlign=middle;resizable=0;points=[];autosize=1;strokeColor=none;fillColor=none;" vertex="1" parent="1">
          <mxGeometry x="1658.75" y="320" width="30" height="40" as="geometry" />
        </mxCell>
        <mxCell id="yvvdC9rSGpjuioBhzgut-233" value="&lt;span style=&quot;font-size: 20px;&quot;&gt;6&lt;/span&gt;" style="text;html=1;align=center;verticalAlign=middle;resizable=0;points=[];autosize=1;strokeColor=none;fillColor=none;" vertex="1" parent="1">
          <mxGeometry x="1671.25" y="320" width="30" height="40" as="geometry" />
        </mxCell>
        <mxCell id="yvvdC9rSGpjuioBhzgut-235" value="" style="strokeWidth=5;html=1;shape=mxgraph.flowchart.annotation_1;align=center;pointerEvents=1;rotation=-90;fillColor=#1ba1e2;fontColor=#ffffff;strokeColor=#006EAF;fontStyle=0;labelBorderColor=none;" vertex="1" parent="1">
          <mxGeometry x="1631.25" y="516.25" width="205" height="42.5" as="geometry" />
        </mxCell>
        <mxCell id="yvvdC9rSGpjuioBhzgut-236" value="&lt;span style=&quot;font-size: 20px;&quot;&gt;1&lt;/span&gt;" style="text;html=1;align=center;verticalAlign=middle;resizable=0;points=[];autosize=1;strokeColor=none;fillColor=none;" vertex="1" parent="1">
          <mxGeometry x="1703.75" y="320" width="30" height="40" as="geometry" />
        </mxCell>
        <mxCell id="yvvdC9rSGpjuioBhzgut-237" value="&lt;span style=&quot;font-size: 18px;&quot;&gt;+&lt;/span&gt;" style="text;html=1;align=center;verticalAlign=middle;resizable=0;points=[];autosize=1;strokeColor=none;fillColor=none;" vertex="1" parent="1">
          <mxGeometry x="1712.5" y="320" width="30" height="40" as="geometry" />
        </mxCell>
        <mxCell id="yvvdC9rSGpjuioBhzgut-238" value="&lt;span style=&quot;font-size: 20px;&quot;&gt;6&lt;/span&gt;" style="text;html=1;align=center;verticalAlign=middle;resizable=0;points=[];autosize=1;strokeColor=none;fillColor=none;" vertex="1" parent="1">
          <mxGeometry x="1725" y="320" width="30" height="40" as="geometry" />
        </mxCell>
        <mxCell id="yvvdC9rSGpjuioBhzgut-239" value="" style="endArrow=classic;html=1;rounded=0;fontSize=12;fontStyle=1;horizontal=0;strokeWidth=3;" edge="1" parent="1">
          <mxGeometry width="50" height="50" relative="1" as="geometry">
            <mxPoint x="1733.75" y="360" as="sourcePoint" />
            <mxPoint x="1733.75" y="420" as="targetPoint" />
          </mxGeometry>
        </mxCell>
        <mxCell id="yvvdC9rSGpjuioBhzgut-240" value="&lt;span style=&quot;font-size: 20px;&quot;&gt;7&lt;/span&gt;" style="text;html=1;align=center;verticalAlign=middle;resizable=0;points=[];autosize=1;strokeColor=none;fillColor=none;" vertex="1" parent="1">
          <mxGeometry x="1718.75" y="600" width="30" height="40" as="geometry" />
        </mxCell>
        <mxCell id="yvvdC9rSGpjuioBhzgut-241" value="" style="strokeWidth=5;html=1;shape=mxgraph.flowchart.annotation_1;align=center;pointerEvents=1;rotation=-90;fillColor=#1ba1e2;fontColor=#ffffff;strokeColor=#006EAF;fontStyle=0;labelBorderColor=none;" vertex="1" parent="1">
          <mxGeometry x="1688.75" y="516.25" width="205" height="42.5" as="geometry" />
        </mxCell>
        <mxCell id="yvvdC9rSGpjuioBhzgut-242" value="&lt;span style=&quot;font-size: 18px;&quot;&gt;f&lt;/span&gt;" style="text;html=1;align=center;verticalAlign=middle;resizable=0;points=[];autosize=1;strokeColor=none;fillColor=none;" vertex="1" parent="1">
          <mxGeometry x="1776.25" y="320" width="30" height="40" as="geometry" />
        </mxCell>
        <mxCell id="yvvdC9rSGpjuioBhzgut-244" value="" style="endArrow=classic;html=1;rounded=0;fontSize=12;fontStyle=1;horizontal=0;strokeWidth=3;" edge="1" parent="1">
          <mxGeometry width="50" height="50" relative="1" as="geometry">
            <mxPoint x="1791.25" y="360" as="sourcePoint" />
            <mxPoint x="1791.25" y="420" as="targetPoint" />
          </mxGeometry>
        </mxCell>
        <mxCell id="yvvdC9rSGpjuioBhzgut-245" value="&lt;span style=&quot;font-size: 20px;&quot;&gt;7&lt;/span&gt;" style="text;html=1;align=center;verticalAlign=middle;resizable=0;points=[];autosize=1;strokeColor=none;fillColor=none;" vertex="1" parent="1">
          <mxGeometry x="1776.25" y="600" width="30" height="40" as="geometry" />
        </mxCell>
        <mxCell id="yvvdC9rSGpjuioBhzgut-246" value="&lt;span style=&quot;font-size: 20px;&quot;&gt;3&lt;/span&gt;" style="text;html=1;align=center;verticalAlign=middle;resizable=0;points=[];autosize=1;strokeColor=none;fillColor=none;" vertex="1" parent="1">
          <mxGeometry x="1776.25" y="580" width="30" height="40" as="geometry" />
        </mxCell>
        <mxCell id="yvvdC9rSGpjuioBhzgut-247" value="" style="strokeWidth=5;html=1;shape=mxgraph.flowchart.annotation_1;align=center;pointerEvents=1;rotation=-90;fillColor=#1ba1e2;fontColor=#ffffff;strokeColor=#006EAF;fontStyle=0;labelBorderColor=none;" vertex="1" parent="1">
          <mxGeometry x="1742.5" y="516.25" width="205" height="42.5" as="geometry" />
        </mxCell>
        <mxCell id="yvvdC9rSGpjuioBhzgut-248" value="&lt;span style=&quot;font-size: 18px;&quot;&gt;g&lt;/span&gt;" style="text;html=1;align=center;verticalAlign=middle;resizable=0;points=[];autosize=1;strokeColor=none;fillColor=none;" vertex="1" parent="1">
          <mxGeometry x="1830" y="320" width="30" height="40" as="geometry" />
        </mxCell>
        <mxCell id="yvvdC9rSGpjuioBhzgut-249" value="" style="endArrow=classic;html=1;rounded=0;fontSize=12;fontStyle=1;horizontal=0;strokeWidth=3;" edge="1" parent="1">
          <mxGeometry width="50" height="50" relative="1" as="geometry">
            <mxPoint x="1845" y="360" as="sourcePoint" />
            <mxPoint x="1845" y="420" as="targetPoint" />
          </mxGeometry>
        </mxCell>
        <mxCell id="yvvdC9rSGpjuioBhzgut-250" value="&lt;span style=&quot;font-size: 20px;&quot;&gt;7&lt;/span&gt;" style="text;html=1;align=center;verticalAlign=middle;resizable=0;points=[];autosize=1;strokeColor=none;fillColor=none;" vertex="1" parent="1">
          <mxGeometry x="1830" y="600" width="30" height="40" as="geometry" />
        </mxCell>
        <mxCell id="yvvdC9rSGpjuioBhzgut-251" value="&lt;span style=&quot;font-size: 20px;&quot;&gt;3&lt;/span&gt;" style="text;html=1;align=center;verticalAlign=middle;resizable=0;points=[];autosize=1;strokeColor=none;fillColor=none;" vertex="1" parent="1">
          <mxGeometry x="1830" y="580" width="30" height="40" as="geometry" />
        </mxCell>
        <mxCell id="yvvdC9rSGpjuioBhzgut-252" value="&lt;span style=&quot;font-size: 20px;&quot;&gt;4&lt;/span&gt;" style="text;html=1;align=center;verticalAlign=middle;resizable=0;points=[];autosize=1;strokeColor=none;fillColor=none;" vertex="1" parent="1">
          <mxGeometry x="1830" y="558.75" width="30" height="40" as="geometry" />
        </mxCell>
        <mxCell id="yvvdC9rSGpjuioBhzgut-253" value="" style="strokeWidth=5;html=1;shape=mxgraph.flowchart.annotation_1;align=center;pointerEvents=1;rotation=-90;fillColor=#1ba1e2;fontColor=#ffffff;strokeColor=#006EAF;fontStyle=0;labelBorderColor=none;" vertex="1" parent="1">
          <mxGeometry x="1800" y="516.25" width="205" height="42.5" as="geometry" />
        </mxCell>
        <mxCell id="yvvdC9rSGpjuioBhzgut-254" value="&lt;span style=&quot;font-size: 18px;&quot;&gt;/&lt;/span&gt;" style="text;html=1;align=center;verticalAlign=middle;resizable=0;points=[];autosize=1;strokeColor=none;fillColor=none;" vertex="1" parent="1">
          <mxGeometry x="1887.5" y="320" width="30" height="40" as="geometry" />
        </mxCell>
        <mxCell id="yvvdC9rSGpjuioBhzgut-256" value="&lt;span style=&quot;font-size: 20px;&quot;&gt;7&lt;/span&gt;" style="text;html=1;align=center;verticalAlign=middle;resizable=0;points=[];autosize=1;strokeColor=none;fillColor=none;" vertex="1" parent="1">
          <mxGeometry x="1887.5" y="600" width="30" height="40" as="geometry" />
        </mxCell>
        <mxCell id="yvvdC9rSGpjuioBhzgut-257" value="&lt;span style=&quot;font-size: 20px;&quot;&gt;3&lt;/span&gt;" style="text;html=1;align=center;verticalAlign=middle;resizable=0;points=[];autosize=1;strokeColor=none;fillColor=none;" vertex="1" parent="1">
          <mxGeometry x="1887.5" y="580" width="30" height="40" as="geometry" />
        </mxCell>
        <mxCell id="yvvdC9rSGpjuioBhzgut-258" value="&lt;span style=&quot;font-size: 20px;&quot;&gt;4&lt;/span&gt;" style="text;html=1;align=center;verticalAlign=middle;resizable=0;points=[];autosize=1;strokeColor=none;fillColor=none;" vertex="1" parent="1">
          <mxGeometry x="1887.5" y="558.75" width="30" height="40" as="geometry" />
        </mxCell>
        <mxCell id="yvvdC9rSGpjuioBhzgut-260" value="" style="strokeWidth=5;html=1;shape=mxgraph.flowchart.annotation_1;align=center;pointerEvents=1;rotation=-90;fillColor=#1ba1e2;fontColor=#ffffff;strokeColor=#006EAF;fontStyle=0;labelBorderColor=none;" vertex="1" parent="1">
          <mxGeometry x="1860" y="516.25" width="205" height="42.5" as="geometry" />
        </mxCell>
        <mxCell id="yvvdC9rSGpjuioBhzgut-261" value="&lt;span style=&quot;font-size: 18px;&quot;&gt;/&lt;/span&gt;" style="text;html=1;align=center;verticalAlign=middle;resizable=0;points=[];autosize=1;strokeColor=none;fillColor=none;" vertex="1" parent="1">
          <mxGeometry x="1947.5" y="320" width="30" height="40" as="geometry" />
        </mxCell>
        <mxCell id="yvvdC9rSGpjuioBhzgut-262" value="&lt;span style=&quot;font-size: 20px;&quot;&gt;7&lt;/span&gt;" style="text;html=1;align=center;verticalAlign=middle;resizable=0;points=[];autosize=1;strokeColor=none;fillColor=none;" vertex="1" parent="1">
          <mxGeometry x="1947.5" y="600" width="30" height="40" as="geometry" />
        </mxCell>
        <mxCell id="yvvdC9rSGpjuioBhzgut-263" value="&lt;span style=&quot;font-size: 20px;&quot;&gt;3&lt;/span&gt;" style="text;html=1;align=center;verticalAlign=middle;resizable=0;points=[];autosize=1;strokeColor=none;fillColor=none;" vertex="1" parent="1">
          <mxGeometry x="1947.5" y="580" width="30" height="40" as="geometry" />
        </mxCell>
        <mxCell id="yvvdC9rSGpjuioBhzgut-264" value="&lt;span style=&quot;font-size: 20px;&quot;&gt;4&lt;/span&gt;" style="text;html=1;align=center;verticalAlign=middle;resizable=0;points=[];autosize=1;strokeColor=none;fillColor=none;" vertex="1" parent="1">
          <mxGeometry x="1947.5" y="558.75" width="30" height="40" as="geometry" />
        </mxCell>
        <mxCell id="yvvdC9rSGpjuioBhzgut-265" value="" style="endArrow=classic;html=1;rounded=0;fontSize=12;fontStyle=1;horizontal=0;strokeWidth=3;entryX=0.383;entryY=1.05;entryDx=0;entryDy=0;entryPerimeter=0;" edge="1" parent="1">
          <mxGeometry width="50" height="50" relative="1" as="geometry">
            <mxPoint x="1962.6599999999999" y="418" as="sourcePoint" />
            <mxPoint x="1962.1599999999999" y="360" as="targetPoint" />
          </mxGeometry>
        </mxCell>
        <mxCell id="yvvdC9rSGpjuioBhzgut-266" value="" style="strokeWidth=5;html=1;shape=mxgraph.flowchart.annotation_1;align=center;pointerEvents=1;rotation=-90;fillColor=#1ba1e2;fontColor=#ffffff;strokeColor=#006EAF;fontStyle=0;labelBorderColor=none;" vertex="1" parent="1">
          <mxGeometry x="1917.5" y="516.25" width="205" height="42.5" as="geometry" />
        </mxCell>
        <mxCell id="yvvdC9rSGpjuioBhzgut-267" value="&lt;span style=&quot;font-size: 18px;&quot;&gt;/&lt;/span&gt;" style="text;html=1;align=center;verticalAlign=middle;resizable=0;points=[];autosize=1;strokeColor=none;fillColor=none;" vertex="1" parent="1">
          <mxGeometry x="2005" y="320" width="30" height="40" as="geometry" />
        </mxCell>
        <mxCell id="yvvdC9rSGpjuioBhzgut-268" value="&lt;span style=&quot;font-size: 20px;&quot;&gt;7&lt;/span&gt;" style="text;html=1;align=center;verticalAlign=middle;resizable=0;points=[];autosize=1;strokeColor=none;fillColor=none;" vertex="1" parent="1">
          <mxGeometry x="2005" y="600" width="30" height="40" as="geometry" />
        </mxCell>
        <mxCell id="yvvdC9rSGpjuioBhzgut-269" value="&lt;span style=&quot;font-size: 20px;&quot;&gt;3&lt;/span&gt;" style="text;html=1;align=center;verticalAlign=middle;resizable=0;points=[];autosize=1;strokeColor=none;fillColor=none;" vertex="1" parent="1">
          <mxGeometry x="2005" y="580" width="30" height="40" as="geometry" />
        </mxCell>
        <mxCell id="yvvdC9rSGpjuioBhzgut-270" value="&lt;span style=&quot;font-size: 20px;&quot;&gt;4&lt;/span&gt;" style="text;html=1;align=center;verticalAlign=middle;resizable=0;points=[];autosize=1;strokeColor=none;fillColor=none;" vertex="1" parent="1">
          <mxGeometry x="2020" y="320" width="30" height="40" as="geometry" />
        </mxCell>
        <mxCell id="yvvdC9rSGpjuioBhzgut-277" value="" style="strokeWidth=5;html=1;shape=mxgraph.flowchart.annotation_1;align=center;pointerEvents=1;rotation=-90;fillColor=#1ba1e2;fontColor=#ffffff;strokeColor=#006EAF;fontStyle=0;labelBorderColor=none;" vertex="1" parent="1">
          <mxGeometry x="1977.5" y="516.25" width="205" height="42.5" as="geometry" />
        </mxCell>
        <mxCell id="yvvdC9rSGpjuioBhzgut-278" value="&lt;span style=&quot;font-size: 18px;&quot;&gt;/&lt;/span&gt;" style="text;html=1;align=center;verticalAlign=middle;resizable=0;points=[];autosize=1;strokeColor=none;fillColor=none;" vertex="1" parent="1">
          <mxGeometry x="2057.5" y="320" width="30" height="40" as="geometry" />
        </mxCell>
        <mxCell id="yvvdC9rSGpjuioBhzgut-279" value="&lt;span style=&quot;font-size: 20px;&quot;&gt;7&lt;/span&gt;" style="text;html=1;align=center;verticalAlign=middle;resizable=0;points=[];autosize=1;strokeColor=none;fillColor=none;" vertex="1" parent="1">
          <mxGeometry x="2065" y="600" width="30" height="40" as="geometry" />
        </mxCell>
        <mxCell id="yvvdC9rSGpjuioBhzgut-280" value="&lt;span style=&quot;font-size: 20px;&quot;&gt;3&lt;/span&gt;" style="text;html=1;align=center;verticalAlign=middle;resizable=0;points=[];autosize=1;strokeColor=none;fillColor=none;" vertex="1" parent="1">
          <mxGeometry x="2065" y="580" width="30" height="40" as="geometry" />
        </mxCell>
        <mxCell id="yvvdC9rSGpjuioBhzgut-281" value="&lt;span style=&quot;font-size: 20px;&quot;&gt;4&lt;/span&gt;" style="text;html=1;align=center;verticalAlign=middle;resizable=0;points=[];autosize=1;strokeColor=none;fillColor=none;" vertex="1" parent="1">
          <mxGeometry x="2072.5" y="320" width="30" height="40" as="geometry" />
        </mxCell>
        <mxCell id="yvvdC9rSGpjuioBhzgut-282" value="" style="endArrow=classic;html=1;rounded=0;fontSize=12;fontStyle=1;horizontal=0;strokeWidth=3;entryX=0.383;entryY=1.05;entryDx=0;entryDy=0;entryPerimeter=0;" edge="1" parent="1">
          <mxGeometry width="50" height="50" relative="1" as="geometry">
            <mxPoint x="2080.5" y="418" as="sourcePoint" />
            <mxPoint x="2080" y="360" as="targetPoint" />
          </mxGeometry>
        </mxCell>
        <mxCell id="yvvdC9rSGpjuioBhzgut-283" value="" style="strokeWidth=5;html=1;shape=mxgraph.flowchart.annotation_1;align=center;pointerEvents=1;rotation=-90;fillColor=#1ba1e2;fontColor=#ffffff;strokeColor=#006EAF;fontStyle=0;labelBorderColor=none;" vertex="1" parent="1">
          <mxGeometry x="2035" y="516.25" width="205" height="42.5" as="geometry" />
        </mxCell>
        <mxCell id="yvvdC9rSGpjuioBhzgut-284" value="&lt;span style=&quot;font-size: 18px;&quot;&gt;/&lt;/span&gt;" style="text;html=1;align=center;verticalAlign=middle;resizable=0;points=[];autosize=1;strokeColor=none;fillColor=none;" vertex="1" parent="1">
          <mxGeometry x="2125" y="320" width="30" height="40" as="geometry" />
        </mxCell>
        <mxCell id="yvvdC9rSGpjuioBhzgut-285" value="&lt;span style=&quot;font-size: 20px;&quot;&gt;7&lt;/span&gt;" style="text;html=1;align=center;verticalAlign=middle;resizable=0;points=[];autosize=1;strokeColor=none;fillColor=none;" vertex="1" parent="1">
          <mxGeometry x="2122.5" y="600" width="30" height="40" as="geometry" />
        </mxCell>
        <mxCell id="yvvdC9rSGpjuioBhzgut-286" value="&lt;span style=&quot;font-size: 20px;&quot;&gt;3&lt;/span&gt;" style="text;html=1;align=center;verticalAlign=middle;resizable=0;points=[];autosize=1;strokeColor=none;fillColor=none;" vertex="1" parent="1">
          <mxGeometry x="2110" y="320" width="30" height="40" as="geometry" />
        </mxCell>
        <mxCell id="yvvdC9rSGpjuioBhzgut-287" value="&lt;span style=&quot;font-size: 20px;&quot;&gt;4&lt;/span&gt;" style="text;html=1;align=center;verticalAlign=middle;resizable=0;points=[];autosize=1;strokeColor=none;fillColor=none;" vertex="1" parent="1">
          <mxGeometry x="2140" y="320" width="30" height="40" as="geometry" />
        </mxCell>
        <mxCell id="yvvdC9rSGpjuioBhzgut-289" value="" style="strokeWidth=5;html=1;shape=mxgraph.flowchart.annotation_1;align=center;pointerEvents=1;rotation=-90;fillColor=#1ba1e2;fontColor=#ffffff;strokeColor=#006EAF;fontStyle=0;labelBorderColor=none;" vertex="1" parent="1">
          <mxGeometry x="2095" y="516.25" width="205" height="42.5" as="geometry" />
        </mxCell>
        <mxCell id="yvvdC9rSGpjuioBhzgut-290" value="&lt;span style=&quot;font-size: 18px;&quot;&gt;/&lt;/span&gt;" style="text;html=1;align=center;verticalAlign=middle;resizable=0;points=[];autosize=1;strokeColor=none;fillColor=none;" vertex="1" parent="1">
          <mxGeometry x="2185" y="320" width="30" height="40" as="geometry" />
        </mxCell>
        <mxCell id="yvvdC9rSGpjuioBhzgut-291" value="&lt;span style=&quot;font-size: 20px;&quot;&gt;7&lt;/span&gt;" style="text;html=1;align=center;verticalAlign=middle;resizable=0;points=[];autosize=1;strokeColor=none;fillColor=none;" vertex="1" parent="1">
          <mxGeometry x="2182.5" y="600" width="30" height="40" as="geometry" />
        </mxCell>
        <mxCell id="yvvdC9rSGpjuioBhzgut-292" value="&lt;span style=&quot;font-size: 20px;&quot;&gt;3&lt;/span&gt;" style="text;html=1;align=center;verticalAlign=middle;resizable=0;points=[];autosize=1;strokeColor=none;fillColor=none;" vertex="1" parent="1">
          <mxGeometry x="2170" y="320" width="30" height="40" as="geometry" />
        </mxCell>
        <mxCell id="yvvdC9rSGpjuioBhzgut-293" value="&lt;span style=&quot;font-size: 20px;&quot;&gt;4&lt;/span&gt;" style="text;html=1;align=center;verticalAlign=middle;resizable=0;points=[];autosize=1;strokeColor=none;fillColor=none;" vertex="1" parent="1">
          <mxGeometry x="2200" y="320" width="30" height="40" as="geometry" />
        </mxCell>
        <mxCell id="yvvdC9rSGpjuioBhzgut-294" value="" style="endArrow=classic;html=1;rounded=0;fontSize=12;fontStyle=1;horizontal=0;strokeWidth=3;" edge="1" parent="1">
          <mxGeometry width="50" height="50" relative="1" as="geometry">
            <mxPoint x="2200" y="360" as="sourcePoint" />
            <mxPoint x="2200" y="420" as="targetPoint" />
          </mxGeometry>
        </mxCell>
        <mxCell id="yvvdC9rSGpjuioBhzgut-295" value="&lt;span style=&quot;font-size: 11px;&quot;&gt;0.75&lt;/span&gt;" style="text;html=1;align=center;verticalAlign=middle;resizable=0;points=[];autosize=1;strokeColor=none;fillColor=none;fontSize=11;" vertex="1" parent="1">
          <mxGeometry x="2177.5" y="585" width="40" height="30" as="geometry" />
        </mxCell>
        <mxCell id="yvvdC9rSGpjuioBhzgut-296" value="" style="strokeWidth=5;html=1;shape=mxgraph.flowchart.annotation_1;align=center;pointerEvents=1;rotation=-90;fillColor=#1ba1e2;fontColor=#ffffff;strokeColor=#006EAF;fontStyle=0;labelBorderColor=none;" vertex="1" parent="1">
          <mxGeometry x="2150" y="516.25" width="205" height="42.5" as="geometry" />
        </mxCell>
        <mxCell id="yvvdC9rSGpjuioBhzgut-297" value="&lt;span style=&quot;font-size: 18px;&quot;&gt;+&lt;/span&gt;" style="text;html=1;align=center;verticalAlign=middle;resizable=0;points=[];autosize=1;strokeColor=none;fillColor=none;" vertex="1" parent="1">
          <mxGeometry x="2240" y="320" width="30" height="40" as="geometry" />
        </mxCell>
        <mxCell id="yvvdC9rSGpjuioBhzgut-298" value="&lt;span style=&quot;font-size: 20px;&quot;&gt;7&lt;/span&gt;" style="text;html=1;align=center;verticalAlign=middle;resizable=0;points=[];autosize=1;strokeColor=none;fillColor=none;" vertex="1" parent="1">
          <mxGeometry x="2237.5" y="600" width="30" height="40" as="geometry" />
        </mxCell>
        <mxCell id="yvvdC9rSGpjuioBhzgut-302" value="&lt;span style=&quot;font-size: 11px;&quot;&gt;0.75&lt;/span&gt;" style="text;html=1;align=center;verticalAlign=middle;resizable=0;points=[];autosize=1;strokeColor=none;fillColor=none;fontSize=11;" vertex="1" parent="1">
          <mxGeometry x="2232.5" y="585" width="40" height="30" as="geometry" />
        </mxCell>
        <mxCell id="yvvdC9rSGpjuioBhzgut-303" value="" style="strokeWidth=5;html=1;shape=mxgraph.flowchart.annotation_1;align=center;pointerEvents=1;rotation=-90;fillColor=#1ba1e2;fontColor=#ffffff;strokeColor=#006EAF;fontStyle=0;labelBorderColor=none;" vertex="1" parent="1">
          <mxGeometry x="2210" y="516.25" width="205" height="42.5" as="geometry" />
        </mxCell>
        <mxCell id="yvvdC9rSGpjuioBhzgut-304" value="&lt;span style=&quot;font-size: 18px;&quot;&gt;+&lt;/span&gt;" style="text;html=1;align=center;verticalAlign=middle;resizable=0;points=[];autosize=1;strokeColor=none;fillColor=none;" vertex="1" parent="1">
          <mxGeometry x="2300" y="320" width="30" height="40" as="geometry" />
        </mxCell>
        <mxCell id="yvvdC9rSGpjuioBhzgut-305" value="&lt;span style=&quot;font-size: 20px;&quot;&gt;7&lt;/span&gt;" style="text;html=1;align=center;verticalAlign=middle;resizable=0;points=[];autosize=1;strokeColor=none;fillColor=none;" vertex="1" parent="1">
          <mxGeometry x="2297.5" y="600" width="30" height="40" as="geometry" />
        </mxCell>
        <mxCell id="yvvdC9rSGpjuioBhzgut-306" value="&lt;span style=&quot;font-size: 11px;&quot;&gt;0.75&lt;/span&gt;" style="text;html=1;align=center;verticalAlign=middle;resizable=0;points=[];autosize=1;strokeColor=none;fillColor=none;fontSize=11;" vertex="1" parent="1">
          <mxGeometry x="2292.5" y="585" width="40" height="30" as="geometry" />
        </mxCell>
        <mxCell id="yvvdC9rSGpjuioBhzgut-307" value="" style="endArrow=classic;html=1;rounded=0;fontSize=12;fontStyle=1;horizontal=0;strokeWidth=3;entryX=0.383;entryY=1.05;entryDx=0;entryDy=0;entryPerimeter=0;" edge="1" parent="1">
          <mxGeometry width="50" height="50" relative="1" as="geometry">
            <mxPoint x="2312.66" y="418" as="sourcePoint" />
            <mxPoint x="2312.16" y="360" as="targetPoint" />
          </mxGeometry>
        </mxCell>
        <mxCell id="yvvdC9rSGpjuioBhzgut-308" value="" style="strokeWidth=5;html=1;shape=mxgraph.flowchart.annotation_1;align=center;pointerEvents=1;rotation=-90;fillColor=#1ba1e2;fontColor=#ffffff;strokeColor=#006EAF;fontStyle=0;labelBorderColor=none;" vertex="1" parent="1">
          <mxGeometry x="2267.5" y="516.25" width="205" height="42.5" as="geometry" />
        </mxCell>
        <mxCell id="yvvdC9rSGpjuioBhzgut-309" value="&lt;span style=&quot;font-size: 18px;&quot;&gt;+&lt;/span&gt;" style="text;html=1;align=center;verticalAlign=middle;resizable=0;points=[];autosize=1;strokeColor=none;fillColor=none;" vertex="1" parent="1">
          <mxGeometry x="2341.25" y="320" width="30" height="40" as="geometry" />
        </mxCell>
        <mxCell id="yvvdC9rSGpjuioBhzgut-310" value="&lt;span style=&quot;font-size: 20px;&quot;&gt;7&lt;/span&gt;" style="text;html=1;align=center;verticalAlign=middle;resizable=0;points=[];autosize=1;strokeColor=none;fillColor=none;" vertex="1" parent="1">
          <mxGeometry x="2355" y="600" width="30" height="40" as="geometry" />
        </mxCell>
        <mxCell id="yvvdC9rSGpjuioBhzgut-311" value="&lt;span style=&quot;font-size: 11px;&quot;&gt;0.75&lt;/span&gt;" style="text;html=1;align=center;verticalAlign=middle;resizable=0;points=[];autosize=1;strokeColor=none;fillColor=none;fontSize=11;" vertex="1" parent="1">
          <mxGeometry x="2358.75" y="325" width="40" height="30" as="geometry" />
        </mxCell>
        <mxCell id="yvvdC9rSGpjuioBhzgut-313" value="" style="strokeWidth=5;html=1;shape=mxgraph.flowchart.annotation_1;align=center;pointerEvents=1;rotation=-90;fillColor=#1ba1e2;fontColor=#ffffff;strokeColor=#006EAF;fontStyle=0;labelBorderColor=none;" vertex="1" parent="1">
          <mxGeometry x="2327.5" y="516.25" width="205" height="42.5" as="geometry" />
        </mxCell>
        <mxCell id="yvvdC9rSGpjuioBhzgut-314" value="&lt;span style=&quot;font-size: 18px;&quot;&gt;+&lt;/span&gt;" style="text;html=1;align=center;verticalAlign=middle;resizable=0;points=[];autosize=1;strokeColor=none;fillColor=none;" vertex="1" parent="1">
          <mxGeometry x="2401.25" y="320" width="30" height="40" as="geometry" />
        </mxCell>
        <mxCell id="yvvdC9rSGpjuioBhzgut-315" value="&lt;span style=&quot;font-size: 20px;&quot;&gt;7&lt;/span&gt;" style="text;html=1;align=center;verticalAlign=middle;resizable=0;points=[];autosize=1;strokeColor=none;fillColor=none;" vertex="1" parent="1">
          <mxGeometry x="2415" y="600" width="30" height="40" as="geometry" />
        </mxCell>
        <mxCell id="yvvdC9rSGpjuioBhzgut-316" value="&lt;span style=&quot;font-size: 11px;&quot;&gt;0.75&lt;/span&gt;" style="text;html=1;align=center;verticalAlign=middle;resizable=0;points=[];autosize=1;strokeColor=none;fillColor=none;fontSize=11;" vertex="1" parent="1">
          <mxGeometry x="2418.75" y="325" width="40" height="30" as="geometry" />
        </mxCell>
        <mxCell id="yvvdC9rSGpjuioBhzgut-317" value="" style="endArrow=classic;html=1;rounded=0;fontSize=12;fontStyle=1;horizontal=0;strokeWidth=3;entryX=0.383;entryY=1.05;entryDx=0;entryDy=0;entryPerimeter=0;" edge="1" parent="1">
          <mxGeometry width="50" height="50" relative="1" as="geometry">
            <mxPoint x="2430.16" y="418" as="sourcePoint" />
            <mxPoint x="2429.66" y="360" as="targetPoint" />
          </mxGeometry>
        </mxCell>
        <mxCell id="yvvdC9rSGpjuioBhzgut-318" value="" style="strokeWidth=5;html=1;shape=mxgraph.flowchart.annotation_1;align=center;pointerEvents=1;rotation=-90;fillColor=#1ba1e2;fontColor=#ffffff;strokeColor=#006EAF;fontStyle=0;labelBorderColor=none;" vertex="1" parent="1">
          <mxGeometry x="2385" y="516.25" width="205" height="42.5" as="geometry" />
        </mxCell>
        <mxCell id="yvvdC9rSGpjuioBhzgut-319" value="&lt;span style=&quot;font-size: 18px;&quot;&gt;+&lt;/span&gt;" style="text;html=1;align=center;verticalAlign=middle;resizable=0;points=[];autosize=1;strokeColor=none;fillColor=none;" vertex="1" parent="1">
          <mxGeometry x="2472.5" y="320" width="30" height="40" as="geometry" />
        </mxCell>
        <mxCell id="yvvdC9rSGpjuioBhzgut-320" value="&lt;span style=&quot;font-size: 20px;&quot;&gt;7&lt;/span&gt;" style="text;html=1;align=center;verticalAlign=middle;resizable=0;points=[];autosize=1;strokeColor=none;fillColor=none;" vertex="1" parent="1">
          <mxGeometry x="2458.75" y="320" width="30" height="40" as="geometry" />
        </mxCell>
        <mxCell id="yvvdC9rSGpjuioBhzgut-321" value="&lt;span style=&quot;font-size: 11px;&quot;&gt;0.75&lt;/span&gt;" style="text;html=1;align=center;verticalAlign=middle;resizable=0;points=[];autosize=1;strokeColor=none;fillColor=none;fontSize=11;" vertex="1" parent="1">
          <mxGeometry x="2490" y="325" width="40" height="30" as="geometry" />
        </mxCell>
        <mxCell id="yvvdC9rSGpjuioBhzgut-323" value="" style="strokeWidth=5;html=1;shape=mxgraph.flowchart.annotation_1;align=center;pointerEvents=1;rotation=-90;fillColor=#1ba1e2;fontColor=#ffffff;strokeColor=#006EAF;fontStyle=0;labelBorderColor=none;" vertex="1" parent="1">
          <mxGeometry x="2445" y="516.25" width="205" height="42.5" as="geometry" />
        </mxCell>
        <mxCell id="yvvdC9rSGpjuioBhzgut-324" value="&lt;span style=&quot;font-size: 18px;&quot;&gt;+&lt;/span&gt;" style="text;html=1;align=center;verticalAlign=middle;resizable=0;points=[];autosize=1;strokeColor=none;fillColor=none;" vertex="1" parent="1">
          <mxGeometry x="2532.5" y="320" width="30" height="40" as="geometry" />
        </mxCell>
        <mxCell id="yvvdC9rSGpjuioBhzgut-325" value="&lt;span style=&quot;font-size: 20px;&quot;&gt;7&lt;/span&gt;" style="text;html=1;align=center;verticalAlign=middle;resizable=0;points=[];autosize=1;strokeColor=none;fillColor=none;" vertex="1" parent="1">
          <mxGeometry x="2518.75" y="320" width="30" height="40" as="geometry" />
        </mxCell>
        <mxCell id="yvvdC9rSGpjuioBhzgut-326" value="&lt;span style=&quot;font-size: 11px;&quot;&gt;0.75&lt;/span&gt;" style="text;html=1;align=center;verticalAlign=middle;resizable=0;points=[];autosize=1;strokeColor=none;fillColor=none;fontSize=11;" vertex="1" parent="1">
          <mxGeometry x="2550" y="325" width="40" height="30" as="geometry" />
        </mxCell>
        <mxCell id="yvvdC9rSGpjuioBhzgut-327" value="" style="endArrow=classic;html=1;rounded=0;fontSize=12;fontStyle=1;horizontal=0;strokeWidth=3;" edge="1" parent="1">
          <mxGeometry width="50" height="50" relative="1" as="geometry">
            <mxPoint x="2549.31" y="360" as="sourcePoint" />
            <mxPoint x="2549.31" y="420" as="targetPoint" />
          </mxGeometry>
        </mxCell>
        <mxCell id="yvvdC9rSGpjuioBhzgut-328" value="&lt;font style=&quot;font-size: 13px;&quot;&gt;7.75&lt;/font&gt;" style="text;html=1;align=center;verticalAlign=middle;resizable=0;points=[];autosize=1;strokeColor=none;fillColor=none;" vertex="1" parent="1">
          <mxGeometry x="2522.5" y="610" width="50" height="30" as="geometry" />
        </mxCell>
      </root>
    </mxGraphModel>
  </diagram>
</mxfile>
